<?xml version="1.0" encoding="utf-8"?>
<!-- Generator: Adobe Illustrator 18.0.0, SVG Export Plug-In . SVG Version: 6.00 Build 0)  -->
<!DOCTYPE svg PUBLIC "-//W3C//DTD SVG 1.1//EN" "http://www.w3.org/Graphics/SVG/1.1/DTD/svg11.dtd">
<svg version="1.1" id="Слой_1" xmlns="http://www.w3.org/2000/svg" xmlns:xlink="http://www.w3.org/1999/xlink" x="0px" y="0px"
	 viewBox="0 246.6 595.3 595.3" enable-background="new 0 246.6 595.3 595.3" xml:space="preserve">
<linearGradient id="SVGID_1_" gradientUnits="userSpaceOnUse" x1="0" y1="479.8354" x2="512" y2="479.8354" gradientTransform="matrix(1.1627 0 0 -1.1627 0 1102.1338)">
	<stop  offset="0" style="stop-color:#A8FF55"/>
	<stop  offset="1" style="stop-color:#00AA9E"/>
</linearGradient>
<path fill="url(#SVGID_1_)" d="M297.6,246.6C133.2,246.6,0,379.9,0,544.3s133.2,297.6,297.6,297.6s297.6-133.2,297.6-297.6
	S462,246.6,297.6,246.6z M297.6,692.5C170.8,692.5,68,626.1,68,544.3S170.8,396,297.6,396s229.6,66.4,229.6,148.2
	S424.5,692.5,297.6,692.5z"/>
<linearGradient id="SVGID_2_" gradientUnits="userSpaceOnUse" x1="153" y1="479.8354" x2="359" y2="479.8354" gradientTransform="matrix(1.1627 0 0 -1.1627 0 1102.1338)">
	<stop  offset="0" style="stop-color:#A8FF55"/>
	<stop  offset="1" style="stop-color:#00AA9E"/>
</linearGradient>
<path fill="url(#SVGID_2_)" d="M297.6,424.5c-21,0-40.7,5.5-57.9,14.9c16.7,8.6,28.1,25.9,28.1,46c0,28.6-23.1,51.7-51.7,51.7
	c-14.1,0-26.9-5.7-36.3-14.8c-1.3,7.1-2,14.4-2,21.9c0,66.2,53.6,119.8,119.8,119.8s119.8-53.6,119.8-119.8S363.8,424.5,297.6,424.5
	z"/>
</svg>
