<?xml version="1.0" encoding="utf-8"?>
<!-- Generator: Adobe Illustrator 21.0.2, SVG Export Plug-In . SVG Version: 6.00 Build 0)  -->
<svg version="1.1"
	 id="svg2" xmlns:cc="http://creativecommons.org/ns#" xmlns:dc="http://purl.org/dc/elements/1.1/" xmlns:rdf="http://www.w3.org/1999/02/22-rdf-syntax-ns#" xmlns:svg="http://www.w3.org/2000/svg"
	 xmlns="http://www.w3.org/2000/svg" xmlns:xlink="http://www.w3.org/1999/xlink" x="0px" y="0px" viewBox="0 0 511.4 511.6"
	 style="enable-background:new 0 0 511.4 511.6;" xml:space="preserve">
<style type="text/css">
	.st0{fill:#7CE726;}
</style>
<g>
	<polygon class="st0" points="350.3,305.2 337,305.2 323.6,305.2 323.6,318.5 323.6,331.9 309.9,331.9 296.2,331.9 296.2,345.6 
		296.2,359.3 309.9,359.3 323.6,359.3 323.6,372.9 323.6,386.6 337,386.6 350.3,386.6 350.3,372.9 350.3,359.3 364,359.3 
		377.7,359.3 377.7,345.6 377.7,331.9 364,331.9 350.3,331.9 350.3,318.5 	"/>
	<path class="st0" d="M255.7-0.2c-141.4,0-256,114.6-256,256s114.6,256,256,256s256-114.6,256-256S397.1-0.2,255.7-0.2z
		 M228.8,259.6c-0.4,2.4-0.7,15.2-0.7,35.1V326l-4.2,2.8c-3.8,2.5-4.7,2.8-8.4,2.9c-2.3,0.1-4.9-0.1-5.7-0.5h0
		c-4.6-1.9-28.9-19.7-42.1-30.7c-41.7-34.9-67.1-70.4-73.6-102.7c-0.8-4-1.1-8.4-1.1-15.5c0-8.6,0.3-10.7,1.7-16.2
		c5.2-19.7,18.2-35.5,36.4-44.3c19.6-9.5,41.7-9,60.9,1.5c6.5,3.6,14.9,10.4,19.1,15.4c1.8,2.2,3.5,4.1,3.7,4.1c0.2,0,1.8-1.8,3.7-4
		c6.1-7.4,16.2-14.6,26.3-18.9c8.7-3.6,13.9-4.6,24.8-4.6c8.6,0,10.7,0.3,16.2,1.7c15,4,28.2,12.8,37.3,24.8
		c18.6,24.6,18.5,55.6-0.2,89.4l-3.2,5.9h-33.5c-28,0-34.1,0.2-37.2,1C238.4,240.8,230.8,249,228.8,259.6z M418.4,314.2
		c0,54-0.2,57.1-3.5,67.1c-2,6-6.7,15.1-10.3,20c-12.8,17.3-35.8,31.7-60.6,38.1c-6.3,1.6-7.9,1.6-15-0.3h0
		c-17.1-4.4-34.4-13.4-47.1-24.3c-14.5-12.6-23.6-28.8-25.8-46.2c-0.4-3.2-0.7-24.6-0.7-54.7v-49.5H337h81.5L418.4,314.2z"/>
</g>
</svg>
