<?xml version="1.0" encoding="utf-8"?>
<!-- Generator: Adobe Illustrator 21.0.2, SVG Export Plug-In . SVG Version: 6.00 Build 0)  -->
<svg version="1.1"
	 id="svg2" inkscape:version="0.91 r13725" sodipodi:docname="phone.svg" xmlns:cc="http://creativecommons.org/ns#" xmlns:dc="http://purl.org/dc/elements/1.1/" xmlns:inkscape="http://www.inkscape.org/namespaces/inkscape" xmlns:rdf="http://www.w3.org/1999/02/22-rdf-syntax-ns#" xmlns:sodipodi="http://sodipodi.sourceforge.net/DTD/sodipodi-0.dtd" xmlns:svg="http://www.w3.org/2000/svg"
	 xmlns="http://www.w3.org/2000/svg" xmlns:xlink="http://www.w3.org/1999/xlink" x="0px" y="0px" viewBox="0 0 512 512"
	 style="enable-background:new 0 0 512 512;" xml:space="preserve">
<style type="text/css">
	.st0{fill:#7CE726;}
</style>
<sodipodi:namedview  bordercolor="#666666" borderopacity="1.0" id="base" inkscape:current-layer="layer1" inkscape:cx="336.42857" inkscape:cy="517.14286" inkscape:document-units="px" inkscape:pageopacity="0.0" inkscape:pageshadow="2" inkscape:window-height="737" inkscape:window-maximized="1" inkscape:window-width="1280" inkscape:window-x="-4" inkscape:window-y="-4" inkscape:zoom="0.35" pagecolor="#ffffff" showgrid="false">
	</sodipodi:namedview>
<path class="st0" d="M256,0C114.6,0,0,114.6,0,256s114.6,256,256,256s256-114.6,256-256S397.4,0,256,0z M360.9,377.8
	c-4.5,6.8-13.5,15.8-18.9,19c-2.3,1.3-6.7,3.3-9.8,4.3c-5.1,1.7-6.4,1.9-14.2,2.1c-6.9,0.2-9.6,0-13.9-1
	c-24.4-5.4-49.3-16.3-73.8-32.4c-47.3-31-88.6-79-108.8-126.2c-5.1-11.9-7.2-17.8-10-28.8c-4.8-18.5-3.5-32.7,4-45.2
	c3-5,12.4-14.2,18.9-18.6c18.3-12.3,33.6-10.2,50.7,6.9c25.1,25.1,26.1,40.4,4.3,64.9c-6.9,7.8-8.6,10.8-8.6,15.7
	c0,2.7,0.5,4.3,2.5,8.5c14.1,28.5,61.9,75,85.6,83.2c3.6,1.2,4.5,1.3,7,0.8c4.4-0.9,6-2,13.2-8.5c23-20.7,37.4-20.8,60.1-0.4
	C371,341.9,374.3,357.7,360.9,377.8z M305.6,237.8c-2-7.8-5.5-13.6-11.6-19.7c-6.1-6.1-12-9.6-19.7-11.6c-5.6-1.5-15.2-1.7-20.9-0.4
	c-8.3,1.8-13.6-1.6-14.1-8.9c-0.3-4.5,1.4-7.5,5.2-9.5c7-3.6,23.3-4.1,34.7-1.1c13.8,3.6,26.8,12.2,35.3,23.4
	c4.2,5.5,9.1,15.8,11,22.9c3,11.4,2.4,27.7-1.1,34.7c-2.3,4.5-8.1,6.6-12.9,4.7h0c-5-2-7-6.8-5.5-13.4
	C307.2,253,307.1,243.5,305.6,237.8z M379,273.9c-1.5,7.4-3.2,10.4-6.6,12.1c-3.3,1.6-6,1.6-9.2,0l0,0c-1.7-0.8-3-2.1-4.1-3.9
	c-1.7-3-1.7-5.8,0-13.5c3.5-15.7,2.6-33.6-2.7-49.8c-2.6-7.9-9.3-21.1-14.2-27.6c-9.6-12.8-21.5-22.9-35.3-29.7
	c-12-5.9-21-8.6-33.8-10.1c-9.7-1.1-20.3-0.5-29.7,1.6c-7.8,1.7-10.6,1.7-13.6,0c-4.7-2.8-6.3-8.2-3.9-13.2
	c1.6-3.4,4.7-5.1,11.8-6.6c9.9-2.1,16.5-2.6,28.6-2.3c12.6,0.3,18.8,1.2,29.5,4.3c19.3,5.5,35.9,15.5,50.7,30.2
	c14.8,14.8,24.7,31.4,30.2,50.7c3,10.4,3.9,16.9,4.3,29.1C381.6,256.9,381.1,263.7,379,273.9z"/>
</svg>
