<?xml version="1.0" encoding="UTF-8" standalone="no"?>
<svg
   xmlns:dc="http://purl.org/dc/elements/1.1/"
   xmlns:cc="http://creativecommons.org/ns#"
   xmlns:rdf="http://www.w3.org/1999/02/22-rdf-syntax-ns#"
   xmlns:svg="http://www.w3.org/2000/svg"
   xmlns="http://www.w3.org/2000/svg"
   version="1.1"
   id="svg2"
   viewBox="0 0 512.5228 511.99998"
   height="144.49777mm"
   width="144.64532mm">
  <defs
     id="defs4" />
  <metadata
     id="metadata7">
    <rdf:RDF>
      <cc:Work
         rdf:about="">
        <dc:format>image/svg+xml</dc:format>
        <dc:type
           rdf:resource="http://purl.org/dc/dcmitype/StillImage" />
        <dc:title></dc:title>
      </cc:Work>
    </rdf:RDF>
  </metadata>
  <g
     transform="translate(-118.02432,-296.36221)"
     id="layer1">
    <g
       transform="translate(117.52432,295.86221)"
       id="g4243">
      <g
         id="g4218">
	<path
   style="fill:#7ce726"
   class="st0"
   d="m 228.3,381.6 c -1.6,-1.1 -3.1,-0.7 -6.8,1.8 -2.6,1.8 -3.2,1.9 -5.9,1.7 -2.1,-0.2 -3.6,-0.7 -5.1,-1.7 -2.5,-1.7 -4.1,-1.8 -7.2,-0.4 -6.5,3 -2.9,9.5 7.2,12.9 3.4,1.1 9.9,0.6 13.4,-1.2 3.6,-1.8 6.8,-4.8 7.3,-6.9 0.4,-1.8 -1.1,-5.1 -2.9,-6.2 z"
   id="path4220" />

	<path
   style="fill:#7ce726"
   class="st0"
   d="m 213.6,326.7 c 2.2,-1.7 3.5,-1.8 6.2,-0.6 5,2.2 8.9,0.8 8.9,-3.2 0,-4.1 -5.6,-7.8 -11.9,-7.8 -4.1,0 -7.5,1.3 -10.2,4 -2.4,2.4 -2.3,4 0.3,6.6 2.4,2.3 4.5,2.6 6.7,1 z"
   id="path4222" />

</g>
      <g
         id="g4224">
	<g
   id="g4226">
		<path
   style="fill:#7ce726"
   class="st0"
   d="m 407.2,194.7 c 1,0.1 2.6,0.1 4.6,0.1 6.2,0 15.9,-0.4 19,-0.9 C 455.4,190 477.4,177 492.6,157.5 466.9,96.1 417.9,47 356.8,20.9 c -0.1,0.1 -0.2,0.1 -0.3,0.2 -4.6,3.5 -14.2,13.3 -18,18.4 -13.8,18.5 -20.5,40.7 -19.3,63.4 17.2,12.4 30.2,29.8 35.8,49.5 l 1.3,4.5 -1.6,-1.5 c -2.7,-2.5 -6,-3.6 -10.2,-3.4 l -3.5,0.2 -1.9,-4.6 c -3.8,-9.2 -9.7,-17.7 -16.9,-25.1 0.7,2.8 1.6,5.5 2.5,8.2 4.8,6 8.6,12.5 11.2,19.4 1,2.7 1.2,3.4 0.9,4 0.8,1.2 1.7,2.3 2.6,3.4 3.1,-1.3 7.1,-1.6 10.4,-0.6 4,1.1 8,5.5 8.9,9.7 0.3,1.4 0.7,2 2.3,2.7 1.1,0.5 3,2 4.3,3.4 2.7,2.9 4,6.5 3.7,10.1 11.6,6.5 24.2,10.5 38.2,11.9 z"
   id="path4228" />

		<path
   style="fill:#7ce726"
   class="st0"
   d="m 474.8,189.7 c -12.8,8.2 -27,13.6 -42.1,16 -4.2,0.7 -15,1.1 -20.8,1.1 -3.4,0 -5,-0.1 -5.8,-0.2 -15.7,-1.6 -29.9,-6.1 -43.1,-13.5 -3.7,3 -4.5,3.1 -34.6,3.1 l -28.1,0 -2.6,-1.1 c -5.1,-2.2 -7.9,-5.6 -9,-10.5 -1.4,-6.8 3.6,-14.6 10.5,-16.4 l 2.2,-0.5 0.2,-3.3 c 0.7,-9.4 9.4,-15.6 18.3,-15.3 -1.4,-2.6 -2.6,-5.2 -3.8,-7.9 l -0.7,-0.9 c -3.5,-4.5 -12.3,-12.9 -17.5,-16.2 -7.7,-5 -16.4,-8.4 -25.6,-10.3 -6.9,-1.4 -19.8,-1.5 -26.5,-0.3 -5.2,1 -13.6,3.6 -18,5.7 -10.2,4.8 -20.1,13 -26.6,22.1 -2.2,3 -2.4,3.2 -4.7,3.5 -5.4,0.7 -10.6,4.1 -13,8.6 l -1.2,2.1 -1.3,-1 -1.3,-1 0.9,-2.5 c 1.8,-4.9 5.5,-11.7 9.4,-17.2 4.7,-6.6 13.8,-15.5 20.7,-20 8.8,-5.8 20.2,-10.5 31.2,-12.8 4.5,-0.9 6.7,-1.1 16.7,-1.1 12.4,0 16.5,0.5 25.8,3.4 8.6,2.7 16.8,6.8 24.1,12.1 -0.3,-1.5 -0.5,-3.1 -0.7,-4.7 -6.6,-4.3 -13.7,-7.8 -21.1,-10.1 -9.7,-3.1 -17.2,-4.2 -28.3,-4.1 -13.7,0.1 -24.9,2.4 -36.5,7.6 -20,9 -36,25.2 -43.7,44.1 l -1.6,4.1 -3.9,0 c -3.4,0 -4.3,0.2 -6.3,1.3 -1.3,0.7 -3.1,2.1 -3.9,3.1 l -1.5,1.8 0.4,-3 c 2.9,-11.8 8.9,-23.8 16.9,-33.9 23.5,-29.7 62.5,-43.6 101.3,-36 9.7,1.9 18.9,5.2 27.5,9.8 0.5,-22.6 8,-44.6 21.8,-63.1 3.3,-4.5 9.8,-11.4 15.2,-16.4 -27.3,-10 -56.9,-15.4 -87.6,-15.4 -141.4,0 -256,114.6 -256,256 0,141.4 114.6,256 256,256 141.4,0 256,-114.6 256,-256 0,-30.3 -5.3,-59.4 -14.9,-86.3 -6.7,7.5 -14.3,14.1 -22.8,19.5 z M 205.1,142 c 3,-4.1 12.2,-12.6 17,-15.6 7.3,-4.5 15.5,-7.7 24.5,-9.5 6.2,-1.2 17.9,-1.1 24.6,0.2 12.4,2.5 22.9,7.6 32.2,15.7 3.6,3.2 10.4,11.1 10.4,12.1 0,0.3 -0.9,0.8 -1.9,1.2 -1.1,0.4 -3.4,2 -5.2,3.7 -1.8,1.7 -3.3,3 -3.3,3 0,0 -1,-1.4 -2.2,-3 -4.3,-6 -11.4,-11.9 -18.7,-15.5 -21.5,-10.7 -48.8,-5.4 -64,12.3 -1.7,2 -3.4,4.1 -3.9,4.7 l -0.8,1.2 -2.5,-2.5 c -1.5,-1.5 -3.6,-3 -5.4,-3.8 l -2.9,-1.3 2.1,-2.9 z m -54.6,46.1 c -3.5,-6.7 -0.5,-15.5 6.5,-18.9 1.6,-0.8 1.9,-1.3 2.6,-3.7 1.6,-5.6 6.8,-9.3 12.9,-9.3 3.1,0 6.7,1.2 8.5,2.7 0.5,0.4 1,0.7 1,0.6 0.1,-0.1 1,-1.4 2,-3 3.5,-5.1 9.2,-7.8 15.5,-7.5 9.1,0.5 15.8,6.8 16.5,15.4 0.2,2.6 0.4,3.3 1.1,3.3 1.6,0 6,2.3 7.8,4.1 7.1,7 5.1,18.4 -4,22.8 l -2.5,1.2 -28.9,0.1 c -24.5,0.1 -29.2,0 -31,-0.6 -2.9,-1 -6.3,-4.1 -8,-7.2 z m 191,179.3 0,89.5 -1.6,1.6 -1.6,1.6 -53.9,0 c -35.6,0 -54.2,-0.2 -54.8,-0.6 -2.3,-1.3 -2.6,-3.1 -2.6,-15.3 l 0,-11.6 -6.4,-0.6 c -20.5,-2 -32.2,-9.4 -37.2,-23.2 -2.1,-5.9 -2.6,-10.5 -2.6,-25.2 l 0,-13.6 -8.9,0 c -8.3,0 -9,-0.1 -10.7,-1.2 -1.2,-0.8 -2,-1.9 -2.3,-3.1 -0.4,-1.7 0.6,-4.4 10.7,-29 l 11.2,-27.1 0,-16.1 c 0,-11.6 0.2,-17.4 0.8,-20.9 2.6,-15.6 9.1,-28.3 20.3,-39.3 8.5,-8.4 17.2,-13.7 28,-17.3 8.9,-2.9 11,-3.1 30.9,-3.1 15.8,0 19.1,0.1 23.1,1 14.5,3.1 25.7,9.2 36.1,19.6 8.8,8.8 14,17.2 17.8,28.7 3.9,11.2 3.7,6.1 3.7,105.2 z"
   id="path4230" />

	</g>

	<path
   style="fill:#00c551"
   class="st1"
   d="M 497,151.4 C 509.9,132 515.5,106.6 512,83.6 505.4,40.6 471.3,7 428.5,1.5 425.3,1.1 420.7,0.9 416.1,0.9 c -4.7,0 -9.3,0.2 -12.5,0.6 -17.5,2.3 -32.5,8.6 -47.1,19.6 -4.6,3.5 -14.2,13.3 -18,18.4 -15.1,20.2 -21.7,44.9 -18.8,69.7 3.2,28.1 18.4,53.2 41.7,69 13.7,9.3 28.8,14.8 45.8,16.5 1,0.1 2.6,0.1 4.6,0.1 6.2,0 15.9,-0.4 19,-0.9 27.1,-4.3 51,-19.6 66.2,-42.5 z m -81.9,5.2"
   id="path4232" />

</g>
      <g
         id="layer1-7"
         groupmode="layer"
         label="Layer 1">
	<path
   style="fill:#ffffff"
   id="path4160"
   connector-curvature="0"
   class="st2"
   d="M 415.4,157.9 C 404.6,157 395,153.4 386.1,146.8 l -0.8,-0.6 c -0.8,-0.6 -0.9,-1.8 -0.2,-2.5 L 422.9,105.9 460.7,68 c 0.7,-0.7 1.8,-0.6 2.4,0.1 l 0,0 c 8.3,10.3 12.5,23.9 11.7,37.6 -1.5,24.9 -19.6,45.9 -43.9,51 -4.9,1.1 -10.9,1.5 -15.5,1.2 l 0,0 z m -9.9,-62.6 c -4.7,-4.7 -7.1,-7.3 -7.3,-7.9 -0.7,-1.7 -0.2,-4 1.1,-5.2 1.4,-1.3 4.1,-1.6 5.7,-0.8 0.5,0.2 3.9,3.5 7.7,7.3 l 5.7,5.7 c 0.6,0.6 0.6,1.7 0,2.3 l -2.2,2.2 c -1.8,1.8 -3.4,3.4 -3.5,3.4 -0.2,0 -3.4,-3.1 -7.2,-7 l 0,0 z m -43.3,-5.7 c -1.6,-0.6 -2.8,-2.2 -3.1,-3.9 -0.2,-1.2 0.3,-6.4 0.8,-9.2 1.7,-8.6 6.2,-16.6 12.8,-22.8 7.5,-7.1 18,-11.5 27.9,-11.7 2.5,0 2.7,0 3.7,0.5 3,1.7 3.4,5.8 0.9,7.9 -1.1,1 -2.3,1.3 -4.2,1.3 -0.8,0 -2.5,0.2 -3.8,0.3 -13.8,2.1 -24.9,12.5 -27.7,26.1 -0.3,1.3 -0.6,3.7 -0.7,5.4 -0.2,3.2 -0.4,4 -1.6,5.1 -1.1,1.1 -3.5,1.6 -5,1 l 0,0 z m 18.5,0 c -1,-0.4 -2.1,-1.4 -2.6,-2.4 -0.4,-0.8 -0.5,-1.3 -0.5,-3.2 0.1,-5.7 2.5,-11.3 6.8,-15.8 4.3,-4.5 9.4,-7 15.6,-7.8 2.4,-0.3 3.2,-0.2 4.5,0.5 3,1.5 3.4,5.9 0.8,8.1 -1,0.9 -2.1,1.2 -3.7,1.2 -1.7,0 -4.5,0.8 -6.4,1.8 -2.4,1.3 -4.9,3.8 -6.1,6.3 -1,2 -1.6,4.4 -1.6,6.2 0,2.3 -1.1,4.1 -2.9,4.9 -1.1,0.5 -3,0.6 -3.9,0.2 l 0,0 z" />

</g>
    </g>
  </g>
  <style
     type="text/css"
     id="style4163">
	.st0{fill:#7CE726;}
	.st1{fill:#00C551;}
	.st2{fill:#FFFFFF;}
</style>
  <style
     type="text/css"
     id="style4216">
	.st0{fill:#7CE726;}
	.st1{fill:#00C551;}
	.st2{fill:#FFFFFF;}
</style>
</svg>
