<?xml version="1.0" encoding="utf-8"?>
<!-- Generator: Adobe Illustrator 21.0.2, SVG Export Plug-In . SVG Version: 6.00 Build 0)  -->
<svg version="1.1" id="Layer_1" xmlns="http://www.w3.org/2000/svg" xmlns:xlink="http://www.w3.org/1999/xlink" x="0px" y="0px"
	 viewBox="0 0 513 513" style="enable-background:new 0 0 513 513;" xml:space="preserve">
<style type="text/css">
	.st0{fill:#7CE726;}
	.st1{fill:#FFFFFF;}
	.st2{fill:#00C551;}
</style>
<g>
	<g>
		<g>
			<path class="st0" d="M475.8,188.7c-12.8,8.2-27,13.6-42.1,16c-4.2,0.7-15,1.1-20.8,1.1c-3.4,0-5-0.1-5.8-0.2
				c-19.1-2-35.9-8.1-51.4-18.6c-1.3-0.9-2.5-1.7-3.7-2.7c0.4,3.5,0.6,7.1,0.6,10.8v34.2c-21.7,8.5-38.2,27.4-43.3,50.6
				c-13.3-2.4-30.7-4.2-52.9-4.2c-22.2,0-39.5,1.8-52.9,4.2c-5-23.2-21.5-42.1-43.3-50.6v-34.2h0.2c0-53.1,43-96.1,96.1-96.1
				c19.6,0,37.9,5.9,53.1,16c-0.3-1.8-0.6-3.6-0.8-5.5c-3.3-27.8,4.2-55.6,21.1-78.2c3.1-4.2,9-10.5,14.2-15.4
				c-27.3-9.9-56.8-15.4-87.6-15.4c-141.4,0-256,114.6-256,256s114.6,256,256,256s256-114.6,256-256c0-30.3-5.3-59.3-14.9-86.2
				C491.2,177.3,483.9,183.5,475.8,188.7z M390.6,305.3c-3.6,1.5-5.9,5-5.9,8.9l-6.4,25.6c0,23-17.4,42-39.7,44.5
				c5.3,2.5,8.9,7.8,8.9,14.1c0,8.6-7,15.6-15.6,15.6c-8.6,0-15.6-7-15.6-15.6c0-6,3.4-11.1,8.4-13.8H188.5
				c4.9,2.6,8.4,7.8,8.4,13.8c0,8.6-7,15.6-15.6,15.6c-8.6,0-15.6-7-15.6-15.6c0-6.2,3.7-11.5,8.9-14.1
				c-22.3-2.5-39.8-21.5-39.8-44.5l-6.4-25.6c0-3.9-2.3-7.4-5.9-8.9c-12-5-19.7-16.6-19.7-29.6c0-17.7,14.4-32,32-32
				c28.3,0,51.3,23,51.3,51.3v9.4c11.4-4.1,33.3-9.4,70.5-9.4s59.1,5.3,70.5,9.4V295c0-28.3,23-51.3,51.3-51.3c17.7,0,32,14.4,32,32
				C410.3,288.7,402.5,300.3,390.6,305.3z"/>
			<path class="st0" d="M408.2,193.7c1,0.1,2.6,0.1,4.6,0.1c6.2,0,15.9-0.4,19-0.9c24.1-3.8,45.7-16.4,60.9-35.3
				C466.9,96.2,417.9,46.9,356.6,20.8c-4.9,4-13.5,12.9-17.1,17.7c-15.1,20.2-21.7,44.9-18.8,69.7c0.8,6.7,2.2,13.2,4.3,19.5
				c10.3,10.4,18.2,23.2,22.8,37.4c4.4,4.5,9.3,8.6,14.6,12.2C376.1,186.5,391.2,192,408.2,193.7z"/>
		</g>
		<path class="st1" d="M447.6,86.3l-16.8-0.1c-1.7,0-3.1-1.4-3.1-3.1l-0.1-16.6l-0.1-19c0-0.5-0.1-0.9-0.3-1.3l-0.8-1.7
			c-1.9-3.8-5.4-6-9.5-6c-0.3,0-0.7,0-1,0c-3.8,0.3-6.9,2.4-8.8,5.8c-0.9,1.6-0.9,2-1,21.8l-0.1,17c0,1.7-1.4,3.1-3.1,3.1l-17,0.1
			c-18.7,0.1-20.2,0.2-21.6,0.9c-4.9,2.6-7.3,8.3-5.5,13.4c0.9,2.5,2.6,4.5,5.2,5.9l1.5,0.8c0.5,0.2,1,0.4,1.5,0.4l19.1,0.1
			l16.8,0.2c1.7,0,3.1,1.4,3.1,3.1v16.2c0,11,0.2,18.6,0.4,20.4c0,0.2,0.1,0.4,0.1,0.6c1,3.1,4.4,6.2,7.8,7c0.5,0.2,1.1,0.2,1.8,0.2
			c1.7,0,3.8-0.4,5.2-1c0.9-0.4,2.3-1.5,3.2-2.5c3-3.4,2.9-2.5,3.1-24.5l0.1-16.6c0-1.7,1.4-3.1,3.1-3.1l16.6-0.1
			c21.8-0.1,21,0,24.2-2.8c4.5-3.9,4.7-11.4,0.5-15.6C469,86.3,469.8,86.4,447.6,86.3z"/>
	</g>
	<path class="st2" d="M498,150.4c12.9-19.4,18.5-44.8,15-67.8c-6.6-43-40.7-76.6-83.5-82.1c-3.2-0.4-7.8-0.6-12.4-0.6
		c-4.7,0-9.3,0.2-12.5,0.6c-17.5,2.3-32.5,8.6-47.1,19.6c-4.6,3.5-14.2,13.3-18,18.4c-15.1,20.2-21.7,44.9-18.8,69.7
		c3.2,28.1,18.4,53.2,41.7,69c13.7,9.3,28.8,14.8,45.8,16.5c1,0.1,2.6,0.1,4.6,0.1c6.2,0,15.9-0.4,19-0.9
		C458.9,188.6,482.8,173.3,498,150.4z M471.6,105c-3.2,2.8-2.4,2.7-24.2,2.8l-19.7,0.1l-0.1,19.7c-0.2,22-0.1,21.1-3.1,24.5
		c-0.9,1-2.3,2.1-3.2,2.5c-1.4,0.6-3.5,1-5.2,1c-0.7,0-1.3,0-1.8-0.2c-3.5-0.9-7-4.1-7.9-7.3c-0.2-0.9-0.4-8.8-0.4-20.8V108
		l-19.9-0.2l-19.9-0.1l-2.2-1.2c-2.6-1.4-4.3-3.4-5.2-5.9c-1.8-5.1,0.6-10.8,5.5-13.4c1.4-0.7,2.9-0.8,21.6-0.9l20.1-0.1l0.1-20.1
		c0.1-19.8,0.1-20.2,1-21.8c1.9-3.4,5-5.5,8.8-5.8c0.3,0,0.7,0,1,0c4.1,0,7.6,2.2,9.5,6l1.1,2.3l0.1,19.7l0.1,19.7l19.9,0.1
		c22.2,0.1,21.4,0,24.5,3.1C476.3,93.6,476.1,101.1,471.6,105z"/>
</g>
</svg>
