<?xml version="1.0" encoding="utf-8"?>
<!-- Generator: Adobe Illustrator 21.0.2, SVG Export Plug-In . SVG Version: 6.00 Build 0)  -->
<svg version="1.1" id="Layer_1" xmlns="http://www.w3.org/2000/svg" xmlns:xlink="http://www.w3.org/1999/xlink" x="0px" y="0px"
	 viewBox="0 0 512 512" style="enable-background:new 0 0 512 512;" xml:space="preserve">
<style type="text/css">
	.st0{fill:#7CE726;}
</style>
<g>
	<path class="st0" d="M294.6,369.7h-77.1c-3.4,0-6.2,2.8-6.2,6.2c0,3.4,2.8,6.2,6.2,6.2h77.1c3.4,0,6.2-2.8,6.2-6.2
		C300.7,372.5,298,369.7,294.6,369.7z"/>
	<path class="st0" d="M256,0C114.6,0,0,114.6,0,256s114.6,256,256,256s256-114.6,256-256S397.4,0,256,0z M107.8,135.2
		c0-13.6,11-24.7,24.7-24.7h247c13.6,0,24.7,11.1,24.7,24.7v185.2c0,10.2-8.3,18.5-18.5,18.5H126.4c-10.2,0-18.5-8.3-18.5-18.5
		V135.2z M422,379.3c0,12.2-12.4,22.1-27.7,22.1H117.7c-15.3,0-27.7-9.9-27.7-22.1c0-7.5,0-16.9,0-22.9c0-3.4,2.8-6.2,6.2-6.2h319.6
		c3.4,0,6.2,2.8,6.2,6.2V379.3z"/>
	<path class="st0" d="M373.3,141.4H138.7V308h234.5V141.4z M256,283.5c-43.1,0-78-22.6-78-50.5s34.9-50.5,78-50.5s78,22.6,78,50.5
		S299.1,283.5,256,283.5z"/>
	<path class="st0" d="M256,193.5c-7,0-13.6,1.8-19.3,5c5.6,2.9,9.4,8.7,9.4,15.4c0,9.6-7.7,17.3-17.3,17.3c-4.7,0-9-1.9-12.1-4.9
		c-0.4,2.4-0.7,4.8-0.7,7.3c0,22.1,17.9,40,40,40s40-17.9,40-40S278.1,193.5,256,193.5z"/>
</g>
</svg>
