<?xml version="1.0" encoding="UTF-8" standalone="no"?>
<!-- Created with Inkscape (http://www.inkscape.org/) -->

<svg
   xmlns:dc="http://purl.org/dc/elements/1.1/"
   xmlns:cc="http://creativecommons.org/ns#"
   xmlns:rdf="http://www.w3.org/1999/02/22-rdf-syntax-ns#"
   xmlns:svg="http://www.w3.org/2000/svg"
   xmlns="http://www.w3.org/2000/svg"
   xmlns:sodipodi="http://sodipodi.sourceforge.net/DTD/sodipodi-0.dtd"
   xmlns:inkscape="http://www.inkscape.org/namespaces/inkscape"
   width="512"
   height="512"
   viewBox="0 0 512.00001 512.00001"
   id="svg2"
   version="1.1"
   inkscape:version="0.91 r13725"
   sodipodi:docname="logo(3).svg">
  <defs
     id="defs4" />
  <sodipodi:namedview
     id="base"
     pagecolor="#ffffff"
     bordercolor="#666666"
     borderopacity="1.0"
     inkscape:pageopacity="0.0"
     inkscape:pageshadow="2"
     inkscape:zoom="0.98994949"
     inkscape:cx="316.26114"
     inkscape:cy="265.00783"
     inkscape:document-units="px"
     inkscape:current-layer="layer1"
     showgrid="false"
     units="px"
     inkscape:window-width="1280"
     inkscape:window-height="737"
     inkscape:window-x="-4"
     inkscape:window-y="-4"
     inkscape:window-maximized="1" />
  <metadata
     id="metadata7">
    <rdf:RDF>
      <cc:Work
         rdf:about="">
        <dc:format>image/svg+xml</dc:format>
        <dc:type
           rdf:resource="http://purl.org/dc/dcmitype/StillImage" />
        <dc:title></dc:title>
      </cc:Work>
    </rdf:RDF>
  </metadata>
  <g
     inkscape:label="Layer 1"
     inkscape:groupmode="layer"
     id="layer1"
     transform="translate(0,-540.36216)">
    <path
       style="fill:#000000;fill-opacity:1"
       d="m 286.16121,1038.6632 c -0.36376,-21.8489 -4.41412,-31.2971 -19.32402,-45.07616 -13.09792,-12.10465 -13.73847,-13.3587 -13.73847,-26.89638 0,-12.20881 -0.74116,-14.19977 -5.28608,-14.19977 -2.90736,0 -8.11291,3.9699 -11.56792,8.82199 -5.03291,7.0681 -6.3504,12.72308 -6.62676,28.44392 -0.38992,22.181 -4.46592,30.8976 -22.77989,48.7151 l -11.03464,10.7356 5.38992,-14.1852 c 7.2496,-19.0794 6.83307,-33.3501 -1.45058,-49.69705 -7.87424,-15.539 -8.35691,-21.17225 -2.92749,-34.16668 3.62225,-8.66925 3.52825,-9.48726 -1.26474,-11.0085 -10.48467,-3.32769 -25.16453,10.33746 -29.77492,27.71676 -1.64457,6.19943 -5.5386,14.51142 -8.65338,18.47125 -5.84087,7.42562 -22.71707,18.35092 -36.20096,23.43592 -7.49685,2.827 -7.41935,2.586 3.24548,-10.09223 14.524,-17.26609 16.3686,-23.12329 14.68632,-46.63524 -1.37021,-19.15061 -1.09853,-20.32155 7.07455,-30.49188 10.75857,-13.38757 7.48933,-17.78175 -9.93833,-13.35815 -8.65292,2.19634 -14.37905,6.30813 -22.81279,16.38132 -14.26785,17.04137 -21.75986,20.83149 -45.10229,22.81666 l -18.82258,1.60077 12.31291,-6.70902 c 18.74678,-10.21468 26.86903,-20.28329 30.09823,-37.31078 2.88424,-15.2085 12.27927,-28.41612 22.52698,-31.66861 7.54016,-2.39317 4.73013,-10.01118 -4.61462,-12.51023 -10.53841,-2.81829 -18.79302,-0.72124 -36.66102,9.3136 -13.09498,7.35427 -16.30962,8.05034 -30.38443,6.57925 -8.65706,-0.90483 -19.30517,-3.10953 -23.66248,-4.89933 l -7.9224,-3.25414 12.69996,-2.03249 c 19.68521,-3.15038 30.16147,-9.61713 41.72065,-25.75316 10.21182,-14.25518 20.11963,-20.59717 32.17807,-20.59717 8.54768,0 6.09558,-10.27089 -3.65603,-15.31362 -7.05835,-3.65003 -13.0709,-4.15632 -31.55108,-2.65686 C 37.53665,805.19492 26.69892,801.88177 8.20861,786.6355 L 0,779.86703 l 8.20861,2.17371 c 4.51473,1.19554 15.0228,2.1737 23.3513,2.1737 13.19578,0 17.02022,-1.3493 29.74619,-10.49474 13.26732,-9.5345 15.93768,-10.41074 29.18484,-9.5767 11.8316,0.7449 14.8066,0.0534 15.77591,-3.66724 1.83794,-7.05469 -13.52571,-21.00911 -25.11398,-22.81034 -22.24898,-3.45832 -30.0477,-7.03642 -40.8288,-18.73254 -6.03836,-6.55085 -12.35982,-14.49104 -14.04771,-17.64487 -2.79747,-5.22709 -1.71109,-5.02002 12.28321,2.3414 17.08885,8.98927 29.29842,10.09258 43.94853,3.97136 13.32478,-5.56745 21.84807,-5.161 32.72358,1.56043 9.72204,6.00854 14.7445,5.18805 14.72771,-2.40596 -0.0197,-9.26158 -10.6787,-21.74538 -25.89918,-30.33529 -13.0416,-7.36023 -16.60586,-11.09705 -21.94347,-23.00592 -3.50499,-7.82007 -7.21101,-18.52784 -8.23562,-23.79502 l -1.86289,-9.57671 8.56464,10.15308 c 15.0275,17.81465 23.61213,22.29848 43.29646,22.61418 16.96093,0.27205 18.02431,0.70662 28.06385,11.46956 12.18829,13.0665 16.33326,11.46497 16.33326,-6.31082 0,-9.64111 -1.8871,-13.77963 -11.17843,-24.51491 -6.14814,-7.10362 -12.30459,-15.8777 -13.68101,-19.49796 -3.39944,-8.94121 -3.21272,-44.53287 0.23362,-44.53287 1.50492,0 2.76497,2.15474 2.80012,4.78835 0.0352,2.63357 3.4212,10.9448 7.52456,18.46937 7.20974,13.2209 13.44574,17.90988 36.3895,27.36202 3.77166,1.55379 9.42762,8.35262 13.08853,15.73316 7.50877,15.13809 12.34651,16.41894 16.54329,4.38004 4.37033,-12.53675 3.7141,-21.91627 -2.51927,-36.00787 -4.76382,-10.76938 -5.11869,-14.29081 -2.58125,-25.61341 2.70523,-12.07123 12.14377,-36.47432 14.107,-36.47323 0.46085,2.6e-4 1.00527,8.02517 1.2098,17.83315 0.34577,16.57989 4.86613,34.05726 8.85271,34.22785 0.94611,0.0405 6.00632,3.62694 11.24492,7.96992 8.40725,6.96992 9.69132,9.77019 10.94481,23.86817 1.20535,13.55654 2.23116,15.97184 6.7835,15.97184 9.80524,0 17.89431,-16.38478 17.89431,-36.2458 0,-21.36194 4.34237,-31.32975 20.59908,-47.28446 6.72943,-6.60447 12.23471,-11.44394 12.23397,-10.75437 -7.7e-4,0.68955 -2.46335,7.73124 -5.47241,15.64816 -7.20965,18.9688 -6.88372,29.78184 1.2981,43.06584 7.39784,12.01107 8.82368,27.01295 3.6472,38.37403 -2.6623,5.84313 -2.53607,7.62619 0.68405,9.66357 5.84131,3.69578 7.17078,3.29329 16.42004,-4.97092 4.64936,-4.15419 11.74872,-15.42731 15.77635,-25.05135 5.87708,-14.04333 9.85337,-19.23984 20.13852,-26.31857 7.04854,-4.85113 16.5607,-10.12583 21.1381,-11.72152 l 8.32255,-2.90125 -10.89132,13.77853 c -13.0797,16.54707 -14.72705,22.22044 -12.9349,44.54691 1.41184,17.58861 -0.1657,23.1305 -9.53363,33.48711 -6.40821,7.08473 -4.35971,11.83143 5.10604,11.83143 10.06942,0 17.20732,-4.5363 32.49306,-20.65003 14.74653,-15.54531 26.02844,-20.35063 47.84302,-20.37775 l 12.27241,-0.0153 -10.90431,5.76058 c -20.60703,10.88641 -31.42581,25.46838 -31.42581,42.35698 0,7.30427 -16.02884,26.17812 -24.62582,28.99674 -3.50201,1.14818 -3.55323,2.01321 -0.34903,5.8949 6.28265,7.61097 26.70697,5.86311 42.76017,-3.65934 15.07634,-8.94296 28.69885,-10.36221 49.40809,-5.14758 14.75863,3.71627 15.85581,7.88379 2.07553,7.88379 -16.44447,0 -32.32613,9.47757 -41.86815,24.98535 -8.37858,13.61692 -20.42848,21.53009 -32.7853,21.53009 -9.27496,0 -6.80122,9.73243 3.74589,14.73734 10.79696,5.1235 23.27323,5.59598 38.21475,1.44725 9.5076,-2.63993 12.30639,-2.08952 27.56109,5.42035 9.33838,4.59728 19.19676,10.8094 21.90746,13.80469 4.85615,5.366 4.79319,5.40717 -4.2853,2.80351 -19.74906,-5.66396 -32.49261,-3.44604 -49.74868,8.65842 -15.24643,10.69476 -16.90388,11.21904 -30.90112,9.77439 -14.17632,-1.4631 -14.79059,-1.25642 -14.79059,4.97704 0,9.35769 15.27572,20.05444 31.715,22.20834 7.38776,0.96793 16.82985,3.47136 20.98238,5.56316 7.31203,3.68336 33.04978,33.72181 30.81154,35.96002 -0.60928,0.6093 -4.7912,-1.51505 -9.29313,-4.72071 -4.50194,-3.20565 -13.37801,-7.66056 -19.72458,-9.89978 -10.71376,-3.78003 -12.85372,-3.64793 -29.91374,1.84665 -19.08676,6.38796 -14.58396,7.75284 -31.25695,-0.31843 -9.79243,-4.74044 -13.64582,-5.47295 -16.06484,-3.05393 -4.68291,4.68291 5.41359,21.87787 17.27192,29.41512 24.81875,15.77504 28.91971,21.08193 36.6587,47.43833 l 4.41883,15.04911 -13.13804,-14.2198 c -15.25838,-16.51467 -22.75058,-19.98273 -43.16976,-19.98273 -13.7568,0 -15.67129,-0.8215 -25.48762,-10.93658 -9.17838,-9.45767 -11.07617,-10.37911 -14.03472,-6.81432 -6.23947,7.51809 -1.47752,25.1893 10.67002,39.59556 12.96923,15.38074 17.72823,32.17645 14.98229,52.87641 l -1.86527,14.0612 -3.34238,-9.6542 c -9.00318,-26.0051 -14.21263,-32.30734 -34.02965,-41.16819 -16.98185,-7.59318 -19.43494,-9.69701 -23.86259,-20.46511 -6.5265,-15.8724 -13.20238,-16.02256 -17.4939,-0.39351 -2.7151,9.88807 -2.44886,13.47206 1.77859,23.94171 7.1263,17.6492 6.37058,36.6075 -2.1814,54.7245 l -7.10369,15.0487 -0.2282,-13.699 z m 0.32132,-111.11168 c 21.62585,-4.54858 41.404,-14.83799 58.42736,-30.39639 28.43785,-25.99061 41.14226,-51.83256 44.08994,-89.68297 4.63744,-59.5492 -31.14429,-113.82983 -88.7051,-134.56496 -22.08406,-7.95535 -64.09935,-7.95535 -86.18341,0 -94.98237,34.21551 -119.97681,154.78733 -46.13721,222.56333 32.23526,29.58815 75.1399,41.20272 118.5084,32.08099 z"
       id="path3384"
       inkscape:connector-curvature="0"
       sodipodi:nodetypes="csssssscsssssscsssssscssssssscsssssscssssssssssscssscssssssscsssssssscssssscsssssssscsscssscssssssssssssssssssscssccssscsssssscssssssccccssssscc" />
    <path
       style="fill:#010101"
       d="m 243.20575,856.59114 c -11.07851,-1.3611 -19.6807,-3.72035 -31.05329,-8.51675 -8.80414,-3.71313 -20.44806,-11.27156 -28.37392,-18.4184 -2.49504,-2.2498 -7.57191,-7.36783 -9.0203,-9.09343 -0.43224,-0.51498 -1.61316,-1.91939 -2.62428,-3.12095 -4.63529,-5.5083 -8.39867,-11.1298 -12.6928,-18.95967 l -1.15535,-2.10663 1.15535,-2.10664 c 4.23285,-7.71815 8.84767,-14.59136 13.04008,-19.42162 0.70605,-0.81347 1.68403,-1.95519 2.1733,-2.53716 2.56725,-3.05366 10.01906,-10.26057 12.81622,-12.39502 0.60164,-0.4591 2.11765,-1.61705 3.36894,-2.57323 4.95692,-3.78787 10.36034,-7.18633 16.31926,-10.26396 11.1768,-5.77252 24.16056,-9.61798 37.4167,-11.08188 5.74943,-0.63492 17.16461,-0.63069 22.85183,0.008 11.64005,1.30817 20.72368,3.73769 32.4232,8.67196 6.58393,2.77677 17.4512,9.34578 22.78282,13.7717 0.85825,0.71246 1.85549,1.49727 2.21607,1.74404 1.91168,1.30825 9.96119,9.10896 12.49904,12.1127 0.48925,0.57908 1.28376,1.49196 1.76554,2.0286 3.89411,4.33756 9.23861,12.26018 13.44627,19.93259 l 1.15376,2.10381 -1.9408,3.51387 c -3.70782,6.71312 -8.29956,13.46686 -12.25147,18.02003 -0.70606,0.81348 -1.68465,1.9552 -2.17464,2.53716 -2.45047,2.91038 -10.64117,10.85373 -12.49528,12.11794 -0.36192,0.24678 -1.36024,1.03865 -2.21849,1.75976 -0.85825,0.7211 -2.51274,1.96074 -3.67662,2.75473 -1.16388,0.79402 -2.77896,1.90379 -3.58907,2.46619 -2.09988,1.45778 -6.88363,4.24232 -10.52364,6.12564 -11.13762,5.76255 -24.17979,9.62806 -37.41669,11.08985 -5.97802,0.66017 -18.1878,0.57765 -24.22174,-0.16368 z m 19.97398,-17.78385 c 13.97814,-1.25679 26.5174,-5.26464 38.69958,-12.36938 8.47214,-4.94102 18.09132,-13.32477 24.4663,-21.32399 3.17273,-3.9811 6.11885,-8.18237 6.11885,-8.72569 0,-0.57504 -3.01579,-4.89979 -6.10274,-8.75154 -4.67653,-5.83516 -12.79401,-13.51353 -18.24054,-17.25384 -3.60608,-2.47641 -5.43298,-3.65641 -5.66093,-3.65641 -0.38261,0 -0.343,0.31045 0.3243,2.54189 1.90643,6.37508 2.42781,13.90256 1.44676,20.8888 -2.92343,20.81827 -19.55249,37.65139 -40.50207,40.99903 -4.34321,0.69402 -11.65294,0.63702 -16.15418,-0.12602 -11.92059,-2.02068 -22.78864,-8.62942 -30.30142,-18.42598 -9.44968,-12.32222 -12.43621,-28.51578 -8.01806,-43.47558 0.34487,-1.16776 0.54723,-2.20303 0.44966,-2.3006 -0.38032,-0.38031 -6.18306,3.61255 -10.9728,7.55038 -4.0441,3.3248 -9.59306,8.88617 -12.61999,12.64823 -2.90429,3.60962 -6.57375,8.82806 -6.57375,9.34872 0,0.49257 3.56027,5.59267 6.29494,9.01755 4.63015,5.7987 12.81934,13.34638 19.65366,18.11404 4.08591,2.85037 11.86993,7.01162 16.83271,8.99862 13.07849,5.23639 27.6734,7.48735 40.85971,6.30177 z m -21.37839,-44.15381 c 5.9305,-1.25581 11.02853,-5.91979 13.30184,-12.16933 0.55697,-1.53116 0.68011,-2.54744 0.68031,-5.61467 2.2e-4,-3.28718 -0.099,-4.00225 -0.81164,-5.8478 -1.16501,-3.01723 -2.18962,-4.62953 -4.37754,-6.88833 -3.55831,-3.67361 -7.53454,-5.32585 -12.85019,-5.33965 -5.34166,-0.0139 -9.13707,1.53997 -12.81236,5.24538 -2.61798,2.63943 -4.02248,5.02712 -4.84206,8.23164 -3.40983,13.3323 8.15406,25.25364 21.71163,22.38276 z"
       id="path3397"
       inkscape:connector-curvature="0" />
  </g>
</svg>
