<?xml version="1.0" encoding="utf-8"?>
<!-- Generator: Adobe Illustrator 21.0.2, SVG Export Plug-In . SVG Version: 6.00 Build 0)  -->
<svg version="1.1" id="Слой_1" xmlns="http://www.w3.org/2000/svg" xmlns:xlink="http://www.w3.org/1999/xlink" x="0px" y="0px"
	 viewBox="0 0 650 558.1" style="enable-background:new 0 0 650 558.1;" xml:space="preserve">
<style type="text/css">
	.st0{fill:#578C88;}
	.st1{fill:#FFFFFF;}
	.st2{fill:#085A5E;}
	.st3{fill:#26969B;}
	.st4{fill:#72A9AA;}
	.st5{fill:#227773;}
	.st6{fill:#4E9496;}
	.st7{fill:#92CCCC;}
	.st8{fill:#2BBDC1;}
	.st9{fill:#70B1B2;}
	.st10{fill:#6EE5DF;}
	.st11{fill:#22726A;}
	.st12{fill:#5FC1B3;}
	.st13{display:none;fill:#7BA8A6;}
	.st14{fill:#757575;}
	.st15{fill:#679E95;}
	.st16{fill:#367575;}
	.st17{display:none;}
	.st18{display:inline;fill:#26969B;}
	.st19{display:inline;fill:#FFFFFF;}
	.st20{display:inline;fill:#085A5E;}
	.st21{fill:#72AAA2;}
	.st22{fill:#59CEBF;}
	.st23{fill:#4A706E;}
	.st24{fill:#8CBAB2;}
	.st25{fill:#42B29F;}
	.st26{fill:#218E93;}
</style>
<g>
	<g>
		<path class="st0" d="M157.7,340.2c-1.4,0-2.4-0.1-3.1-0.3c-3.5-0.9-7.1-2-8.6-4.8c-1.6-2.8-0.8-6.3,0.2-9.7
			c1.7-5.8,1.6-10.1,0.7-11.8c-1.3-2.4-6.7-3-26.4-3H99.6c-1.1,0-2-0.9-2-2v-24.9c0-26.1,0.8-26.6,1.9-27.3c0.5-0.3,1.1-0.4,1.5-0.4
			c1.8,0,6.1,1.2,9.1,2.2c3.9,1.3,6.9,2,9.2,2c3.9,0,6.7-1.6,8.8-9.6c1.8-6.8,1.8-9.2,0.4-17.5c-1.7-9.8-5.6-11-8.9-11
			c-2.7,0-6.2,1-10.5,3.1c-4.8,2.3-7.7,3.4-8.6,3.4c-2.3,0-2.4-2-2.6-7.9c-0.2-3.9-0.3-9.1-0.3-14.6v-20.5c0-1.1,0.9-2,2-2h19.5
			c20.5,0,24.1-0.9,25.6-3.8c1.3-2.3,1.3-4.9-2.1-12.9c-1-2.5-3.3-8.4-2.6-10.4c1.8-4.7,14.6-4.8,16.1-4.8c4,0,7.6,0.5,10.1,1.3
			c1.6,0.6,3.7,1.5,4.6,3.5c1.2,2.5,0.2,5.9-1.8,10.9c-2.3,5.7-2.9,9.1-2,11.3c0.6,1.4,2,2.5,4.3,3.4c3,1.2,7.9,1.5,26.3,1.5h23
			c1.1,0,2,0.9,2,2v20.9c0,9.4,0,15-0.5,18.6c-0.3,1.9-0.9,6.2-5.3,6.2c-1.5,0-3.2-0.5-5.4-1.1l-0.2-0.1c-3.9-1.1-7.2-1.6-9.8-1.6
			c-2,0-3.5,0.3-4.5,0.9c-2.7,1.7-4.5,8.4-4.3,16c0.2,7.1,2.2,13,4.8,14.4c1,0.5,2.4,0.8,4.2,0.8c2.3,0,5.1-0.5,8-1.3
			c3.5-1.1,5.8-1.5,7.5-1.5c3.4,0,4.6,2,5,3.7c0.4,1.8,0.4,15.8,0.3,24.8l-0.3,22c0,1.1-0.9,1.9-2,2l-22.5,0.5
			c-13.2,0.3-22.2,0.9-23.6,1.2c-2,1-3.7,3-0.6,12.8c1.8,5.7,3,11.1-2.5,13.6C168.2,339.4,161.4,340.2,157.7,340.2z"/>
		<path class="st1" d="M156,153.7c3.5,0,7,0.4,9.5,1.2c4.5,1.5,4.8,3.7,1.6,11.8c-4.2,10.3-3.3,14.6,3.4,17.3
			c3.3,1.3,8.2,1.6,27,1.6h23v20.3c0,18.9,0,23.4-3.8,23.4c-1.2,0-2.9-0.5-5.1-1.1c-4.1-1.1-7.6-1.7-10.4-1.7
			c-2.4,0-4.2,0.4-5.5,1.2c-7.3,4.6-6.8,29.8,0.7,33.8c1.3,0.7,3.1,1,5.1,1c2.5,0,5.4-0.5,8.6-1.4c3.2-1,5.4-1.4,6.9-1.4
			c1.8,0,2.7,0.7,3,2.2c0.3,1.2,0.4,12.1,0.3,24.3l-0.3,22l-22.5,0.5c-12.4,0.3-23.3,0.9-24.3,1.4c-4.1,2-4.6,6.2-1.8,15.3
			c2.2,7,1.9,9.7-1.4,11.2c-2.1,1-8.4,1.8-12.4,1.8c-1.1,0-2.1-0.1-2.7-0.2l0,0c-8-1.9-9.3-4.3-7-12c1.7-5.7,1.9-10.7,0.5-13.3
			c-1.8-3.3-6.6-4-28.2-4H99.3V284c0-15.3,0.4-25.2,1-25.5c0.1,0,0.2-0.1,0.4-0.1c1.2,0,4.7,0.9,8.5,2.1c4,1.4,7.2,2.1,9.9,2.1
			c5.8,0,8.7-3.4,10.7-11.1c1.8-7.1,1.9-9.8,0.4-18.3c-1.5-8.6-4.9-12.7-10.8-12.7c-3.1,0-6.8,1.1-11.4,3.2
			c-3.8,1.8-7.3,3.2-7.8,3.2s-0.9-9.2-0.9-20.5v-20.8h19.5c20.8,0,25.2-0.8,27.4-4.8c1.8-3.3,1.3-6.7-2-14.6
			c-1.7-4.1-2.9-8.1-2.6-8.9C142.7,155,149.4,153.7,156,153.7 M156,149.7c-4.7,0-15.8,0.6-17.9,6.1c-0.3,0.8-1.1,3,2.6,11.9
			c3.3,8,3,9.7,2.2,11.2c-0.3,0.6-0.7,1.3-3.9,1.9c-3.9,0.7-10.8,0.8-20,0.8H99.5c-2.2,0-4,1.8-4,4v20.5c0,5.5,0.1,10.7,0.3,14.7
			c0.1,2,0.2,3.5,0.3,4.6c0.1,1.3,0.5,5.2,4.3,5.2c0.7,0,1.8,0,9.5-3.6c4-1.9,7.3-2.9,9.7-2.9c1.8,0,5.3,0,6.9,9.4
			c1.4,7.9,1.3,10.1-0.4,16.6c-2,7.5-4.2,8.1-6.8,8.1c-2.1,0-4.9-0.6-8.6-1.9c-1.6-0.6-7.1-2.4-9.8-2.4c-1,0-1.8,0.2-2.5,0.7
			c-2.1,1.3-2.3,3-2.6,10.4c-0.2,4.6-0.3,11-0.3,18.5v25.1c0,2.2,1.8,4,4,4h20.9c8.8,0,23.6,0,24.6,1.9c0.6,1.1,0.9,4.7-0.8,10.3
			c-1.2,3.8-2,7.9,0,11.3s5.9,4.8,9.9,5.8c0.9,0.2,2.1,0.3,3.6,0.3c3.8,0,11-0.8,14-2.2c7.5-3.4,4.9-11.6,3.5-16
			c-2.6-8.2-1.5-9.8-0.6-10.3c2-0.3,10.6-0.9,22.9-1.1l22.5-0.5c2.2,0,3.9-1.8,3.9-3.9l0.3-22c0-2.3,0.3-22.6-0.4-25.3
			c-0.8-3.3-3.3-5.2-6.9-5.2c-1.9,0-4.3,0.5-8,1.6c-2.7,0.8-5.3,1.3-7.4,1.3c-2,0-3-0.4-3.3-0.6c-1.4-0.7-3.5-5.3-3.8-12.7
			c-0.3-8.1,1.8-13.3,3.3-14.2c0.3-0.2,1.2-0.6,3.4-0.6c2.4,0,5.6,0.5,9.3,1.6l0.2,0.1c2.4,0.7,4.2,1.2,6,1.2c4.1,0,6.5-2.7,7.3-8
			c0.5-3.7,0.5-9.4,0.5-18.8V206v-20.4c0-2.2-1.8-4-4-4h-23c-17.9,0-22.9-0.3-25.5-1.3c-2.7-1.1-3.1-2-3.2-2.3c-0.7-1.6,0-4.8,2-9.8
			c2.3-5.6,3.2-9.3,1.8-12.5c-1.3-2.8-3.9-3.9-5.8-4.6C163.3,149.9,159,149.7,156,149.7L156,149.7z"/>
	</g>
	<g>
		<path class="st2" d="M225.5,310.7c-0.5,0-1-0.2-1.4-0.6s-0.6-0.9-0.6-1.4v-24.4c0-22.2-0.1-23.9-1.6-25.8c-1-1.3-2.6-1.9-4.8-1.9
			c-1.9,0-4.2,0.5-6.9,1.4c-3.1,1.1-5.5,1.6-7.5,1.6c-7.1,0-8.5-6.5-8.9-12.2c-0.8-9.6,0.5-14.7,4.1-17c1.2-0.8,2.3-1.3,3.9-1.3
			s3.7,0.5,8.1,1.7c3.6,1,5.9,1.5,7.5,1.5c0.8,0,1.4-0.1,2.2-0.5c3.3-1.4,3.9-2.4,3.9-25.3v-21c0-1.1,0.9-2,2-2h26.9
			c14,0,18.6,0.1,20.7,2.9c1.6,2.1,0.8,4.8-0.3,8.9l-0.3,1.1c-2.4,8.6-1.7,11.2,0.7,13.4c2.4,2.3,7.6,3.7,13.5,3.7
			c6.6,0,12.6-1.8,14.8-4.4c2.1-2.5,2.9-5.3,0.7-12.6c-1.6-5.3-2.9-10.7,1.3-12.2c1.8-0.7,20.5-0.7,24.2-0.7h21.9c1.1,0,2,0.9,2,2
			v20c0,18,0.8,21.2,1,21.7c0.8,1.7,1.5,2,2.6,2c1.8,0,4.6-0.9,9.3-2.9c4.8-2.1,8-3.3,10.6-3.3c4.2,0,5.8,3.2,6.9,6.3
			c2.5,6.5,2.2,21.4-1.4,26.2c-1.2,1.7-3.3,3.6-5.1,3.9c-0.2,0-0.4,0.1-0.7,0.1c-1.9,0-6.8-1.3-10.6-2.5c-4-1.3-6.6-1.8-8.3-1.8
			c-1.9,0-2.7,0.6-3.5,2.7c-0.3,1.2-0.8,11.3-0.8,26.3v24.3c0,1.1-0.9,2-2,2h-20.4c-4.9,0-20.9-0.1-24.2-1.2c-7.5-2.6-5-10.2-4-13.1
			c1.4-4.2,2.6-9.9-0.3-12.7c-2.3-2.3-9-3.8-16.4-3.8c-1.3,0-2.5,0-3.8,0.1c-6.9,0.5-10.8,1.7-12.3,3.9c-1.3,1.8-1.2,4.9,0.2,9.5
			c2.8,9.3,3.4,11.3,1.2,14.2c-1.8,2.5-4.3,2.6-23.5,2.9C246.1,310.4,225.5,310.7,225.5,310.7z"/>
		<path class="st1" d="M252.4,185.6c21.9,0,20.9,0.3,18.1,10.4c-2.4,8.6-2.1,12.3,1.3,15.4c3.1,2.8,8.9,4.2,14.9,4.2
			c6.7,0,13.5-1.7,16.3-5.1c2.9-3.5,3.2-7.3,1-14.4c-1.9-6.3-1.9-9,0.1-9.8c0.9-0.3,11.4-0.6,23.5-0.6h21.9v20
			c0,13.1,0.4,20.8,1.2,22.5c1,2.1,2.2,3.2,4.5,3.2c2.2,0,5.4-1,10.1-3.1c4.7-2,7.7-3.1,9.8-3.1c2.6,0,3.7,1.6,5,5
			c2.4,6.4,1.8,20.3-1.1,24.3c-1.2,1.6-2.9,3-3.8,3.2c-0.1,0-0.2,0-0.3,0c-1.4,0-5.6-1-10-2.4c-4-1.3-6.8-1.9-8.9-1.9
			c-2.9,0-4.4,1.3-5.4,4c-0.5,1.4-1,13.5-1,27v24.2h-20.4c-12.2,0-21.6-0.4-23.5-1.1c-4-1.4-4.8-4.5-2.7-10.6
			c2.3-6.9,2.1-11.9-0.8-14.8c-2.7-2.7-9.8-4.4-17.8-4.4c-1.3,0-2.6,0-3.9,0.1c-13.8,0.9-17.3,4.9-14,16c2.8,9.5,3,10.5,1.5,12.4
			c-1.2,1.6-3.5,1.8-21.9,2.1l-20.6,0.3v-24.4c0-23.2-0.1-24.6-2.1-27.1c-1.4-1.8-3.5-2.7-6.4-2.7c-2.1,0-4.7,0.5-7.6,1.5
			c-2.7,1-5,1.5-6.8,1.5c-4.5,0-6.4-3.2-6.9-10.3c-0.7-8.6,0.3-13.3,3.2-15.2c1-0.6,1.7-1,2.8-1c1.4,0,3.5,0.5,7.6,1.6
			s6.3,1.6,8,1.6c1.1,0,2-0.2,3-0.6c4.7-2,5.2-4.3,5.2-27.1v-21h21.8C249.2,185.6,250.9,185.6,252.4,185.6 M252.4,181.6H250h-2.7
			h-21.8c-2.2,0-4,1.8-4,4v21c0,11.1-0.1,17.3-0.7,20.6c-0.4,2.2-0.7,2.3-2,2.8c-0.6,0.2-0.9,0.3-1.4,0.3c-1.3,0-3.6-0.6-6.9-1.5
			c-4.4-1.2-6.7-1.8-8.6-1.8c-2.2,0-3.7,0.8-5,1.6c-5.5,3.6-5.6,11.5-5,18.9c0.3,3.8,1.1,14,10.9,14c2.2,0,4.8-0.5,8.1-1.7
			c2.4-0.9,4.5-1.3,6.2-1.3c2.3,0,3,0.9,3.2,1.1c1.1,1.4,1.2,3.9,1.2,24.6v24.4c0,1.1,0.4,2.1,1.2,2.8c0.7,0.7,1.8,1.2,2.8,1.2
			c0,0,0,0,0.1,0l20.6-0.3c19.6-0.3,22.6-0.3,25.1-3.7c2.7-3.7,1.9-6.3-0.9-15.9c-1.2-3.9-1.3-6.6-0.4-7.8c1.1-1.6,4.8-2.6,10.8-3.1
			c1.2-0.1,2.5-0.1,3.7-0.1c7.6,0,13.4,1.7,15,3.2c1.6,1.6,1.6,5.5-0.2,10.7c-2.8,8.2-1,13.4,5.2,15.6c3.3,1.2,17,1.3,24.8,1.3h20.4
			c2.2,0,4-1.8,4-4v-24.4c0-14.2,0.5-23.9,0.8-25.8c0.5-1.2,0.7-1.3,1.6-1.3l0,0c2,0,5.4,1,7.7,1.7c0.8,0.3,8.2,2.6,11.2,2.6
			c0.4,0,0.7,0,1.1-0.1c3.2-0.6,6-4.3,6.3-4.7c4.1-5.4,4.4-20.9,1.7-28.1c-0.9-2.4-2.9-7.5-8.8-7.5c-2.9,0-6.4,1.3-11.4,3.4
			c-1.6,0.7-6.3,2.7-8.5,2.7c-0.2,0-0.3,0-0.4,0c-0.1-0.1-0.2-0.2-0.4-0.7c-0.2-0.6-0.9-4.1-0.9-21v-20c0-2.2-1.8-4-4-4h-21.9
			c-5.6,0-22.7,0-24.9,0.9c-6.2,2.4-3.8,10.4-2.5,14.7c2.1,7.1,1.2,9-0.3,10.7c-1.5,1.8-6.6,3.7-13.2,3.7c-5.3,0-10.1-1.2-12.2-3.1
			c-1.4-1.3-2.6-2.4-0.1-11.4l0.3-1.1c1.2-4.3,2.2-7.8,0-10.7C271.9,181.6,266.6,181.6,252.4,181.6L252.4,181.6z"/>
	</g>
	<g>
		<path class="st3" d="M285.1,212.2c-1.7,0-4.1-0.1-5.9-0.6c-7.8-2-8.4-4.8-6.2-14.1c2.4-10.1,1.9-11.1,0.2-12.8
			c-1.5-1.5-3.1-1.6-24.2-1.9l-23.5-0.3c-1.1,0-2-0.9-2-2v-23.9c0-21.4,0.7-25.8,1.3-27.3c1.1-2.4,2.9-3.6,5.6-3.6
			c2.1,0,5,0.7,10.1,2.6c3.5,1.3,5.7,1.8,7.3,1.8c1.5,0,2.6-0.4,4-2.8c1.3-2.1,1.7-4,1.7-12c0-6.1-0.6-10.4-1.8-13
			c-1.1-2.3-2.5-3.2-4.9-3.2c-2.2,0-5.2,0.8-9,2.6c-3,1.4-5.4,2-7.4,2c-2.8,0-4.9-1.4-5.8-3.8c-0.9-2.3-1.1-16.2-1.1-23.2V56.6
			c0-1.1,0.9-2,2-2H245c20.5,0,24.1-0.9,25.6-3.8c1.3-2.5,1-7.1-1.1-12.9c-1.7-4.8-2.3-8-0.6-10.4c2-2.9,6.5-3.4,15.8-3.4h0.3
			c6.5,0,10.7,0.6,12.8,1.7c4.7,2.5,3.9,6,1.5,16.4c-1.5,6.4-0.4,8.3,2.9,10.4c1.9,1.3,5.6,1.5,24.5,1.8l22.8,0.3c1.1,0,2,0.9,2,2
			v23.1c0,9.3,0,14.9-0.6,18.4c-0.5,2.9-1.5,6.2-5.8,6.2c-1.7,0-3.8-0.5-6.6-1.3l-0.7-0.2c-2.3-0.6-4.2-0.9-5.8-0.9
			c-4.1,0-6.8,1.8-8,10.5c-1.1,7.9,0.5,14.2,2.6,16.3c1.1,1.1,1.6,1.4,2.9,1.4c1.7,0,4.4-0.6,10-1.8c2.6-0.6,4.1-0.9,5.3-0.9
			c2.3,0,3.4,1.3,4.4,2.6c2.3,2.8,2.3,5.3,2.3,27v23.5c0,1.1-0.9,2-2,2h-23c-14.5,0-25.1,0-27.1,2.7c-1.3,1.8-0.1,6.1,2,12.7
			c1.4,4.5,2.1,9-2,11.7C296.6,211.5,289.3,212.2,285.1,212.2z"/>
		<path class="st1" d="M284.8,26.1c0.1,0,0.2,0,0.3,0c6,0,10,0.5,11.8,1.5c3,1.6,3.1,3.1,0.5,14.2c-1.5,6.6-0.6,9.7,3.7,12.5
			c2.4,1.6,5.6,1.8,25.5,2.1l22.8,0.3v21.4c0,19.5,0.1,24.3-4.4,24.3c-1.6,0-3.8-0.6-6.8-1.4c-2.4-0.6-4.5-1-6.3-1
			c-6,0-8.8,3.7-10,12.3c-1.1,7.8,0.2,15.1,3.1,18c1.3,1.3,2.3,2,4.3,2s5-0.6,10.4-1.9c2.4-0.6,3.9-0.9,4.9-0.9
			c1.3,0,1.8,0.6,2.9,1.9c1.7,2.1,1.9,4.3,1.9,25.7v23.5h-23c-31.8,0-32.5,0.5-27,18c1.6,5.3,1.3,7.8-1.2,9.4
			c-1.9,1.3-8.1,2.1-13.2,2.1c-2.1,0-4.1-0.2-5.5-0.5c-6.2-1.6-6.8-2.9-4.7-11.7c2.3-9.9,2.3-12.1-0.3-14.7
			c-2.1-2.1-3.1-2.2-25.6-2.5l-23.5-0.3v-23.8c0-16,0.4-24.7,1.2-26.4c0.7-1.6,1.8-2.5,3.7-2.5c2,0,4.9,0.8,9.4,2.5
			c3.5,1.3,6,1.9,8,1.9c2.6,0,4.1-1.2,5.7-3.8c1.6-2.6,2-5,2-13.1c0-12.6-2.4-18.3-8.7-18.3c-2.6,0-5.8,0.9-9.8,2.8
			c-2.7,1.2-4.9,1.8-6.6,1.8c-2,0-3.3-0.8-3.9-2.5c-0.5-1.4-1-11.5-1-22.5V56.6h19.5c20.8,0,25.2-0.8,27.4-4.8
			c1.6-3.1,1.3-8.1-1-14.5C268.1,27.5,269.7,26.1,284.8,26.1 M284.8,22.1c-8.8,0-14.7,0.3-17.5,4.2c-2.4,3.4-1.2,7.7,0.4,12.2
			c2.7,7.6,1.6,10.6,1.2,11.3c-0.3,0.6-0.7,1.3-3.9,1.9c-3.9,0.7-10.8,0.8-20,0.8h-19.5c-2.2,0-4,1.8-4,4v19.9
			c0,3.5,0.1,20.8,1.2,23.9c1.2,3.3,4,5.1,7.7,5.1c2.3,0,5-0.7,8.2-2.2c3.5-1.6,6.3-2.4,8.2-2.4c1.4,0,2.3,0.3,3.1,2.1
			c1.1,2.3,1.6,6.4,1.6,12.2c0,7.9-0.4,9.4-1.4,11c-1.1,1.9-1.6,1.9-2.3,1.9c-1.7,0-4.6-1-6.6-1.7c-5.4-1.9-8.4-2.7-10.8-2.7
			c-3.4,0-5.9,1.6-7.4,4.8c-0.6,1.3-1.5,3.3-1.5,28.1v23.9c0,2.2,1.8,4,3.9,4l23.5,0.3c10.4,0.1,16.9,0.2,20.1,0.5
			c2.2,0.2,2.3,0.4,2.7,0.7c1,1,1.5,1.5-0.7,11c-1.3,5.3-1.7,8.3-0.6,11c1.4,3.6,4.8,4.7,8.2,5.5c1.6,0.4,3.8,0.6,6.4,0.6
			c3.8,0,12-0.6,15.3-2.8c5.9-3.9,3.8-10.7,2.8-14c-1.1-3.4-3-9.8-2.3-10.9c0.1-0.1,0.8-1,5.7-1.4c4.4-0.4,11-0.5,19.8-0.5h23
			c2.2,0,4-1.8,4-4V157c0-22.4-0.1-24.9-2.8-28.2c-1.1-1.4-2.7-3.4-6-3.4c-1.4,0-3,0.4-5.8,1c-4.4,1-7.9,1.8-9.5,1.8
			c-0.6,0-0.6,0-1.4-0.8c-1.5-1.5-3.1-7-2-14.6c1.2-8.8,3.8-8.8,6-8.8c1.4,0,3.2,0.3,5.3,0.8l0.7,0.2c3,0.8,5.1,1.3,7.1,1.3
			c4.3,0,6.9-2.7,7.8-7.9c0.6-3.7,0.6-9.4,0.6-18.7V78V56.6c0-2.2-1.8-4-3.9-4l-22.8-0.3c-16.8-0.2-21.9-0.5-23.4-1.5
			c-2.4-1.6-3.4-2.5-2-8.3c2.5-10.6,3.6-15.4-2.5-18.6C297,23,294,22,285,22L284.8,22.1L284.8,22.1z"/>
	</g>
	<path class="st4" d="M238.5,381.4c8.4,3.6,9.9,3.6,11.1,0.5c1.7-4.4,0.8-19.8-1.3-21.9c-1.6-1.6-2.1-1.5-9,1
		c-7.9,2.9-10.9,3.2-13.9,1.6c-4-2.1-4.4-4.8-5-27l-0.5-21.5l-20.5-0.3c-11.3-0.2-21.5,0-22.8,0.3c-2.7,0.7-2.9,3.4-0.8,9.5
		c2.2,6.2,1.9,12.1-0.6,14.9c-3.1,3.3-6.5,4.3-15.4,4.3c-10.1,0.1-14.8-1.8-17.2-6.7c-1.6-3.3-1.6-4,0-10.8
		c2.1-8.9,2.1-10.4,0.1-11.1c-0.9-0.3-11-0.6-22.5-0.6H99.3v20.5c0,12.3-0.2,18.1-0.8,21.6c6.3,6.2,13.4,10.5,20.5,12
		c12.1,2.6,13.7,4.8,13.7,19.7c0,7.9,1.9,15.5,5.3,22.6c2-2.5,6.4-3.7,13.7-4.2c10.2-0.6,17.9,1.1,20.6,4.5c2.6,3.4,2.5,6-0.5,13.5
		c-5.3,13.1-5.2,13.2,24.7,13.6l23.9,0.3l-0.2-24.8c-0.2-26.1,0.1-28.6,4.6-32.3C227.2,378.8,233.3,379.1,238.5,381.4z"/>
	<g id="Слой_2">
		<g>
			<path class="st5" d="M485.3,360.4c-4,0-4.9-3.3-5.4-5.1c-0.7-2.6-1.1-13.8-1.1-23v-18.8c0-0.5,0.2-1,0.6-1.4
				c0.4-0.4,0.9-0.6,1.4-0.6h19.5c20.5,0,24.1-0.9,25.6-3.8c1-1.8,1.2-6.3-0.1-10.6c-2.6-8.3-3.4-10.8-0.1-13.8
				c2.2-2,4.9-2.3,13.4-2.3h0.5c8.4,0,13.3,0.2,15.6,3c1.9,2.3,1.6,5.5,0.4,11c-0.1,0.3-0.2,0.6-0.4,0.9c-2.6,3-4.4,7.4-6.8,14.5
				c-6.1,18.3-20.2,34.3-40.8,46.4c-0.3,0.2-0.7,0.3-1,0.3c-0.4,0-0.9-0.2-1.3-0.4c-0.6-0.5-1.4-0.7-2.4-0.7c-1.7,0-4,0.6-7.5,1.8
				C490.4,359.5,487.4,360.4,485.3,360.4z"/>
			<path class="st1" d="M539.1,283c0.2,0,0.3,0,0.5,0c14.8,0,16.4,0.7,14.1,11.6c-2.8,3.3-4.7,7.9-7.1,15.2
				c-6.2,18.5-20.8,34.1-39.9,45.3c-1-0.8-2.2-1.2-3.7-1.2c-2,0-4.6,0.7-8.1,1.9c-4.9,1.7-7.7,2.6-9.6,2.6c-2.1,0-2.8-1.2-3.5-3.7
				c-0.6-2.1-1-12.2-1-22.5v-18.8h19.5c20.8,0,25.2-0.8,27.4-4.8c1.4-2.6,1.4-7.7,0-12.2c-2.7-8.8-2.8-9.8-0.7-11.7
				C528.6,283.3,530.7,283,539.1,283 M539.1,279c-8.6,0-11.9,0.2-14.8,2.8c-4.2,3.8-3.1,7.3-0.4,15.8c1.2,4,1,7.8,0.3,9.1
				c-0.3,0.6-0.7,1.3-3.9,1.9c-3.9,0.7-10.8,0.8-20,0.8h-19.5c-1.1,0-2.1,0.4-2.8,1.2s-1.2,1.8-1.2,2.8v18.8
				c0,7.8,0.3,20.4,1.2,23.6c0.5,1.8,1.8,6.6,7.3,6.6c2.4,0,5.4-0.9,10.9-2.9c2-0.7,5-1.7,6.8-1.7c0.8,0,1.1,0.2,1.2,0.3
				c0.7,0.6,1.6,0.9,2.5,0.9c0.7,0,1.4-0.2,2-0.5c21-12.3,35.4-28.7,41.7-47.5c2.3-6.8,4-11.1,6.4-13.8c0.4-0.5,0.7-1.1,0.9-1.8
				c1.1-5,1.8-9.4-0.8-12.6c-2.9-3.6-8.1-3.8-17.2-3.8L539.1,279L539.1,279z"/>
		</g>
		<path class="st6" d="M354.8,420.8c1.9-2.3,4-4.6,6.3-7c14.3-15.2,19.5-24.4,19.5-35c0-12.8,1.1-14,10.3-11.1
			c35.9,11.3,76,7,107-7.9c-1.1,0.4-2.2,0.8-3.4,1.3c-8.2,3.3-13.1,3-16-0.9c-1.9-2.6-2.1-4.5-2.6-24.5l-0.5-21.7l-20.5-0.3
			c-11.3-0.2-21.6,0-22.9,0.3c-2.7,0.7-2.6,1.4,0.3,12.2c1.5,5.6,1.5,6.5,0.2,9.8c-2.1,4.9-6.7,6.7-17.1,6.7
			c-16.4,0-20.4-5.2-16.1-21c2.3-8.3,2.4-8.2-23-8.2h-21.4v21c0,23.6-0.6,26.7-5.9,28.9c-2.6,1.1-4.2,1-10-0.4
			c-10.7-2.6-12.9-0.2-11.9,13.5c0.6,8,1.4,8.7,8.1,6.6c10.9-3.4,16.4-1.6,18.7,6.4c0.5,1.9,1,13.4,1,25.7l0,0v5.6H354.8z"/>
		<path class="st7" d="M500.3,56.5h-19.5v18.8c0,10.3,0.5,20.4,1,22.5c1.3,4.6,2.6,4.7,12.9,1.1c6.3-2.2,8-2.4,10.3-1.5
			c4.3,1.7,5.9,6.7,5.8,18.1c0,11-1.1,14.3-5.3,16c-2.5,1-3.9,0.8-10.1-1.4c-9.8-3.6-12.2-3.5-13.6,0.5c-0.7,1.9-1.1,12.1-1.1,26.5
			v23.4h21.9c12.9,0,23.1,0.4,24.9,1.1c5,1.7,5.7,5.2,3.3,14.8c-2.4,9.4-1.9,11.5,3.2,13.1l0,0c4,1.2,14.9,0.5,18.5-1.2
			c3.4-1.6,3.9-5.2,1.8-11.5c-1.7-4.9-2-11-0.8-12.9c1.7-2.7,7-3.3,28.8-3.3c20.7,0,22.4-0.1,22.5-1.8c0.5-11.1-0.2-44.4-1-46.5
			c-1.2-3.3-3.5-3.5-12-1.1c-11.1,3.1-14.1,0-14.1-14.1c0-15.3,3.4-18.9,15.4-16.1c9.1,2.1,9.5,2,11.1-1.8c0.8-1.9,1.3-9.5,1.4-17.8
			c-10.1-9.9-19.2-18.2-27.3-25.2c-20.6-0.4-23.1-1.1-25.5-6.2c-1.2-2.6-1.2-3.8,0.3-10c0.2-0.8,0.4-1.5,0.5-2.3
			c-7.7-4.7-13.9-7-18.7-7c-1.8,0-5-0.7-9.1-2c-1.2,1.4-1,2.2,0.8,8.2C532.3,54.5,529.6,56.5,500.3,56.5z"/>
		<path class="st8" d="M399.5,182.9c-2.6,2-4.3,2.1-23.8,2.4l-20.9,0.3V206c0,11.2,0.4,20.4,0.9,20.4s3.9-1.4,7.6-3.2
			c4.2-1.9,8.5-3.2,11.2-3.3c3.8-0.1,4.9,0.4,7.3,3.1c6.4,7.2,6.7,27.9,0.4,35.3c-3.7,4.4-7.9,4.8-17.4,1.6
			c-4.4-1.5-8.4-2.4-8.9-2.1c-0.7,0.4-1,9.7-1,25.6v24.9h21c16.1,0,21.8,0.3,24.5,1.5c4.8,2,5.9,5.2,4,12.5
			c-2.8,10.9-1.9,13.6,5.3,15.1l0,0c4.2,0.9,13.8,0.2,16.4-1.2c2.9-1.5,3.1-4.7,0.8-12.4c-4.3-14.6-2.7-15.5,27.5-15.5h21.5v-24
			c0-27.2,0.3-26.4-7.9-24c-2.5,0.7-6.9,1.5-9.8,1.8c-4.7,0.4-5.5,0.1-7.8-2.3c-3.5-3.8-4.8-9.6-4.3-18.6c0.5-8.8,2.3-12.3,7.2-14.4
			c2.9-1.2,4.3-1.1,11.6,0.6c6.3,1.5,8.6,1.7,9.6,0.8c1.1-0.9,1.4-5.5,1.4-22v-20.9h-23c-25.2,0-29.7-0.8-31.9-5.6
			c-1.7-3.7-1.4-5.8,1.4-13c3.4-8.4,3-10.6-2.1-12.3c-7.1-2.4-23.5-0.3-23.5,3c0,0.6,1.4,4.2,3.1,8
			C403.7,174.5,403.6,179.8,399.5,182.9z"/>
		<path class="st9" d="M502.6,185.5h-21.8v20.9c0,11.5-0.4,22.1-1,23.5c-1.7,4.5-4.8,5.1-14.1,2.8c-10.2-2.6-12.4-2-14,4
			c-1.5,5.4-0.6,15.1,1.6,18.4c1.9,2.8,3.6,2.9,14.5,0.3c6.9-1.6,10.7-0.7,12,2.6c0.5,1.4,1,13.3,1,26.5l0,0v24l20.5-0.3
			c25.3-0.4,25.1-0.3,21.7-10.6c-2.9-8.9-2.9-13.2,0-16c5.6-5.3,26.7-5.6,33.6-0.5c2.8,2.1,3.8,4.4,3.3,8.8
			c3.5-1.7,8.2-3.1,14.7-4.8c10.6-2.7,21.8-8.2,30.3-14.3c0.2-8.4,0.6-12.1,1.3-13.9c1.9-4.5,4.9-5.2,12.7-2.6c0-0.2,0-0.4,0-0.7
			c0-2.6,6.6-11.5,14.7-19.9c0.9-0.9,1.7-1.8,2.5-2.6c-0.2-0.8-0.4-1.5-0.6-2.1c-2.2-5.4-4.9-5.6-14.5-1.3
			c-15.3,6.9-16.2,5.6-16.2-23v-19.4h-21.9c-12.1,0-22.6,0.3-23.5,0.6c-2,0.8-2,3.9-0.1,9.4c3.7,10.5,0.8,16.9-8.6,18.9
			c-10,2.2-19.3,0.8-23.5-3.5c-2.9-2.9-3.1-7.8-0.7-16.6C529,185.4,529.3,185.5,502.6,185.5z"/>
		<path class="st10" d="M338.7,106.1c-8.9-2-10.6-1.3-11.5,4.9c-0.8,5.7-0.1,14.2,1.4,15.7c0.8,0.8,2.7,0.7,7.1-0.6
			c8.4-2.3,12.2-2.2,14.9,0.7c3.6,3.8,4.2,8,4.2,31.4l0,0v22.3h19c20.6,0,24-0.7,24-4.6c0-1.3-1.1-4.8-2.5-7.9
			c-3.8-8.7-4.1-11.7-1.4-14.9c2.7-3.2,7.8-4.5,16.8-4.6c12.3,0,19,3.4,19,9.7c0,1.8-1.2,6.1-2.6,9.4c-5.2,12.3-4,12.8,25.8,12.9
			h22.8V156c0-18.9,0.3-25.3,1.4-27.9c2.6-6.3,8-7.1,18.9-2.8c6.7,2.6,6.9,2.7,8.3,0.8c0.9-1.3,1.4-4.8,1.4-11.1
			c0-7.5-0.3-9.6-1.9-11.5l-1.9-2.3L495,104c-8.8,3.5-13.7,3.3-16.7-0.7c-1.9-2.6-2.1-4.5-2.6-24.5l-0.5-21.7l-20.5-0.3
			c-11.3-0.2-21.6,0-22.9,0.3c-2.7,0.7-2.6,1.4,0.3,12.2c1.5,5.6,1.5,6.5,0.2,9.8c-2.1,4.9-6.8,6.8-17.1,6.9
			c-14.9,0.1-19.9-4.9-17-17c2.1-8.6,1.9-11-0.8-11.7c-1.2-0.3-11.4-0.6-22.5-0.6h-20.3v21c0,23.6-0.6,26.7-5.9,28.9
			C346.3,107.5,344.7,107.4,338.7,106.1z"/>
		<path class="st11" d="M220.8,51.5V29.2c-5,3.7-9.9,8-14.5,13.1c-2.5,2.7-6.3,5.9-10.7,9.2c1.2,0,2.5,0,3.9,0
			C199.5,51.5,220.8,51.5,220.8,51.5z"/>
		<path class="st12" d="M318.9,558.1c3.4,0,6.2-15.6,7.9-44.7c2-34.4,5.2-54.4,13.3-70.9h-12.6c-27.1,0-26.5-0.2-23.7,8.8
			c2.7,8.6,2.6,12.3-0.5,16c-4.2,5-16.8,6.4-25.3,4c1.6,4,1.6,11,1.6,24.2c0,22.6,0.9,27.9,11.5,39.6c5.1,0.7,9.3,2.1,11.2,4
			c2,2,2.7,5,2.1,9.3C311.1,554.1,316.8,558.1,318.9,558.1z"/>
		<path class="st13" d="M158.3,85.9c-4.4-0.1-7.6-0.6-10.1-1.8c-13.8,13.6-24.3,30.8-27.1,45.8c-1.7,9.2-10.1,22.7-20.7,33.3
			c-0.2,0.2-0.4,0.4-0.6,0.6l0.2,16.7h19.2c15.8,0,19.6-0.3,21.4-1.6c2.9-2,2.8-2.8-0.8-11.8c-3.6-9.1-3.7-11.6-0.6-14.6
			c2.9-2.8,8.1-4,16.4-4.1c12.2,0,19.2,3.5,19.2,9.6c0,1.3-1.1,5.2-2.5,8.5s-2.5,7.4-2.5,8.9c0,4.3,3.5,4.9,28.7,4.9h22.4l-0.3-24.8
			c-0.2-21.7-0.1-25.1,1.4-28c3.2-6.1,7.7-6.7,18.7-2.6c5.5,2,7.4,2.4,8.3,1.4c0.8-0.8,1.2-4.9,1.2-11.6c0-8.5-0.3-10.7-1.7-12.1
			c-1.6-1.6-2.1-1.6-8.7,1c-8.8,3.5-13.6,3.3-16.5-0.7c-1.9-2.6-2.1-4.5-2.6-24.5l-0.5-21.7l-20.5-0.3c-4.1-0.1-8-0.1-11.5-0.1
			c-4.2,2.8-8.6,5.5-12.7,7.7c0.2,0.7,0.4,1.4,0.7,2.1c2.4,6.7,2,12.3-1.1,15.3C172,85,167.6,86,158.3,85.9z"/>
		<path class="st14" d="M374.6,0.1c-0.7,0-1.4-0.1-2.1-0.1C373.3,0.2,374,0.2,374.6,0.1z"/>
		<path class="st15" d="M225.8,27.1L225.8,27.1v24.4h20c18.4,0,20.2-0.2,21.9-1.9c1.8-1.8,1.8-2.2,0.4-7.3
			c-3.2-11.3-3.3-12.1-1.9-15.4c1.8-4.3,6.6-5.9,17.5-5.9c10.8,0,15.1,0.9,18.4,4c3.2,2.9,3.4,6.2,0.9,15.8
			c-2.7,10.4-3.2,10.2,24.2,10.6l22.5,0.3V27.1c0-13.6,0.4-25.6,1-27.1l0,0c-11.1,0.7-16.6,2.8-24.4,6.8
			c-13.1,6.8-23.4,8.3-44.8,6.7c-21.9-1.6-39.9,2.3-55.8,12.3C225.8,26.2,225.8,26.7,225.8,27.1z"/>
		<path class="st16" d="M220.8,442.5h-23c-18.9,0-23.7-0.3-27-1.6c-6.7-2.7-7.6-7-3.5-17.2c4.3-10.5,3.3-12-8.8-12.9
			c-7.7-0.6-15.4,0.9-16.3,3.2c-0.3,0.7,0.9,4.8,2.6,9c0.9,2.2,1.6,4.1,2.1,5.7c15.8,19.3,43.5,32.6,74,33.1v-19.3H220.8z"/>
		<g class="st17">
			<path class="st18" d="M292.1,187.2c-5.9,0-6.8-4.2-7.7-11c-1.3-10-2.1-10.7-4.2-11.7c-0.6-0.3-0.8-0.3-1.3-0.3
				c-2.1,0-7.7,2-21.4,7l-21.5,7.9c-0.2,0.1-0.5,0.1-0.7,0.1c-0.8,0-1.6-0.5-1.9-1.3l-8.3-21.8c-7.4-19.5-8.3-23.8-8.2-25.3
				c0.4-5.8,5.5-6.3,14-6.4c8.7-0.1,9.3-1.5,9.9-4.8c0.4-2.3,0.1-4.2-2.6-11.5c-3.3-8.8-6.4-12.9-9.6-12.9c-2.3,0-5.4,1.9-9.3,5.9
				c-3.3,3.3-6,4.9-8.5,4.9l0,0c-1.6,0-3.1-0.7-4.2-2c-1.6-1.8-6.6-14.4-9.1-20.8L190.6,65c-0.4-1,0.1-2.2,1.2-2.6l17.8-6.8
				c18.6-7.1,21.6-9.1,22-12.3c0.4-2.7-1.6-6.8-5.4-11.4c-3.2-3.8-4.9-6.5-4.2-9.3c0.9-3.4,4.9-5.4,13.6-8.7c5.2-2,8.9-2.9,11.3-2.9
				c0.3,0,0.7,0,1,0.1c5.2,0.7,5.7,4.2,7.1,14.5c0.8,6.2,2.3,7.6,6.2,8.4c0.4,0.1,0.7,0.1,1,0.1c2.4,0,7.3-1.7,21.9-7l20.9-7.6
				c0.2-0.1,0.5-0.1,0.7-0.1c0.8,0,1.6,0.5,1.9,1.3l8,21c5.5,14.5,7.4,19.4,5.4,22.6c-1.5,2.4-4.5,2.8-9.2,3.3l-0.7,0.1
				c-4.7,0.5-7.5,1.6-8.9,3.5s-1.5,5.1-0.3,10c1.8,7.6,5.4,12.8,8,13.9c0.9,0.4,1.4,0.6,1.9,0.6c1.4,0,4-1.6,9.6-5.4
				c3-2,4.5-3,6.2-3c1.3,0,2.3,0.6,3.3,1.2c3,1.8,4,4,11.5,23.8l7.8,21.3c0.2,0.5,0.2,1,0,1.5s-0.6,0.9-1.1,1.1l-21,8
				c-13.2,5-22.8,8.7-23.7,11.8c-0.6,2,2.1,5.6,6.2,10.8c2.8,3.6,5.1,7.5,2.2,11.4c-2.4,3.3-13,8.2-17.8,8.7
				C293.7,187.1,292.9,187.2,292.1,187.2z"/>
			<path class="st19" d="M246.7,13.1c0.3,0,0.5,0,0.7,0c3.3,0.4,3.8,1.7,5.4,12.8c0.9,6.6,2.8,9,7.7,10.1c0.5,0.1,0.9,0.2,1.4,0.2
				c2.7,0,7.3-1.5,22.6-7.1l20.9-7.6l7.4,19.5c9.2,24.1,9.2,23.5-2.2,24.8c-10.5,1.2-13.4,5.3-10.9,15.9c1.7,7.4,5.4,13.7,9.1,15.3
				c1,0.5,1.8,0.7,2.7,0.7c2,0,4.4-1.5,10.7-5.7c2.9-1.9,4.1-2.7,5.1-2.7c0.7,0,1.3,0.3,2.3,0.9c2.3,1.4,3.2,3.2,10.6,22.8l8.1,21.3
				l-21,8c-28.9,11-29.4,11.7-18.4,25.8c3.3,4.2,3.9,6.7,2.2,9c-1.9,2.6-11.8,7.4-16.4,7.9l0,0c-1,0.1-1.9,0.2-2.6,0.2
				c-3.9,0-4.7-1.9-5.7-9.2c-1.3-9.8-2.1-11.8-5.4-13.3c-0.7-0.3-1.3-0.5-2.1-0.5c-2.4,0-6.9,1.6-22.1,7.2l-21.5,7.9l-8.3-21.8
				c-5.5-14.6-8.2-22.7-8.1-24.5c0.2-3.5,2.6-4.4,12-4.6c8.6-0.1,10.9-1.4,11.8-6.4c0.5-2.9,0-5.3-2.7-12.6
				c-3.6-9.6-7.1-14.2-11.5-14.2c-3,0-6.5,2.2-10.7,6.5c-2.9,2.9-5.2,4.3-7.1,4.3c-1,0-2-0.4-2.7-1.3c-1-1.1-4.9-10.2-8.7-20.2
				l-6.9-18.2l17.8-6.7c18.9-7.2,22.7-9.4,23.3-13.9c0.4-3.4-1.6-7.8-5.9-12.9c-6.5-7.7-5.5-9.5,8.6-14.9
				C241.1,14.1,244.6,13.1,246.7,13.1 M246.7,9.1c-2.7,0-6.5,1-12,3.1c-8.2,3.1-13.6,5.5-14.8,10.1c-1,4,1.6,7.5,4.6,11.1
				c5,6,5.1,9,5,9.8c-0.1,0.7-0.2,1.4-2.8,3c-3.3,2-9.6,4.5-17.9,7.7L191,60.7c-1,0.4-1.8,1.1-2.2,2.1s-0.5,2.1-0.1,3.1l6.9,18.2
				c1.2,3.1,7.3,19,9.4,21.4c1.5,1.7,3.5,2.6,5.7,2.6c3.1,0,6.2-1.7,9.9-5.5c4.6-4.6,6.9-5.3,7.9-5.3c1.3,0,3.9,1.5,7.8,11.6
				c2.7,7.2,2.9,8.7,2.5,10.4c-0.4,2.3-0.6,3-8,3.1c-7.2,0.1-15.4,0.3-15.9,8.3c-0.1,1.4-0.2,3.6,8.4,26.2l8.3,21.8
				c0.6,1.6,2.1,2.6,3.7,2.6c0.5,0,0.9-0.1,1.4-0.2l21.5-7.9c11.8-4.3,18.9-6.9,20.7-6.9h0.1c0,0,0.1,0,0.4,0.2
				c1.2,0.6,1.8,0.8,3.1,10.2c0.8,5.9,1.7,12.7,9.7,12.7c0.9,0,1.8-0.1,3.1-0.2c5.4-0.6,16.4-5.8,19.2-9.6
				c4.1-5.6-0.2-11.2-2.3-13.8c-2-2.5-6.1-7.8-5.8-9c0,0,0.3-1.1,4.6-3.2c3.9-1.9,9.8-4.2,17.9-7.3l21-8c1-0.4,1.8-1.1,2.2-2.1
				s0.5-2.1,0.1-3.1l-8.1-21.3c-7.7-20.4-8.7-22.7-12.4-24.8c-1.1-0.6-2.5-1.5-4.3-1.5c-2.3,0-4.1,1.2-7.3,3.4c-3,2-7.5,5-8.5,5
				c0,0-0.3,0-1.1-0.4c-1.8-0.8-5.1-5.3-6.8-12.6c-1-4.2-1-7,0-8.4c0.9-1.3,3.5-2.2,7.5-2.7l0.7-0.1c5-0.5,8.7-0.9,10.7-4.2
				c2.5-4,0.7-8.7-5.3-24.3l-0.6-1.6l-7.4-19.5c-0.6-1.6-2.1-2.6-3.7-2.6c-0.5,0-0.9,0.1-1.4,0.2l-21,7.7
				c-13.2,4.8-19.1,6.8-21.2,6.8c-0.2,0-0.4,0-0.6-0.1c-2.6-0.6-3.9-1.1-4.6-6.7c-1.4-10.5-2.1-15.3-8.8-16.2
				C247.6,9.1,247.2,9.1,246.7,9.1L246.7,9.1z"/>
		</g>
		<path class="st7" d="M301.3,438.2c1.4-0.5,13-0.8,25.7-0.7l15.9,0.1c2.1-3.5,4.5-6.9,7.2-10.4l0.1-12.4c0.3-27,0-28.4-6.2-27.8
			c-2.2,0.2-6.3,1-8.9,1.7c-6.5,1.8-9.6,0.1-11.5-6.1c-1.6-5.5-0.8-16.5,1.5-20.8c2.9-5.6,5.1-5.8,20.2-2.2c1.2,0.3,2.8-0.2,3.8-1.1
			c1.4-1.4,1.7-4.5,1.8-23l0.2-21.3l-20.3-0.2c-11.5-0.1-22-0.7-24.3-1.3c-8.1-2.3-10.4-7.8-7-16.9c2.2-6,2-9.7-0.5-11.1
			c-3.2-1.7-17.7-2.5-22.7-1.2c-2.3,0.6-4.6,1.7-4.9,2.5c-0.3,0.8,0.4,4.2,1.5,7.7c2.8,8.6,2.6,13.3-0.6,16.2
			c-3.6,3.2-6.2,3.5-27.3,3.3l-18.5-0.2l-0.2,19.9c-0.1,13,0.2,20.7,0.9,22.4c1.4,3.1,4.6,3.3,10.8,0.6c2.4-1.1,6.2-2.2,8.2-2.5
			c3.2-0.5,4.2-0.2,6.3,2.1c3,3.2,3.7,6.4,3.6,17.4c-0.1,9.6-1.3,12.9-5.4,14.8c-2.4,1.1-3.8,0.9-11-1.6c-9.3-3.3-11.5-3.2-12.9,0.3
			c-0.5,1.3-1.1,13.2-1.2,26.3l-0.2,23.9l21.9,0.2c13,0.1,23.3,0.7,25.1,1.3c4.6,1.6,5.3,4.9,3,13.9c-1,4.1-1.9,8-1.9,8.6
			c-0.1,2.3,2.7,4.7,6.5,5.5l0,0c4.6,1,13.8,0.4,17.2-1.1c3.6-1.5,3.9-4.9,1.5-13.1C296.2,443.4,296.9,439.7,301.3,438.2z"/>
		<g class="st17">
			<path class="st20" d="M196,366.3c-0.3,0-0.7-0.1-1-0.3c-0.5-0.3-0.8-0.7-0.9-1.2l-7.5-28.1c-6.9-25.6-7.5-27.5-10-29.4
				c-1-0.8-2.3-1.2-3.7-1.2c-2.8,0-6.3,1.4-10.3,4.2c-4.5,3.1-7.8,4.5-10.7,4.5c-5.9,0-8.8-5.8-10.8-11.4c-3.8-10.6-4-16.7-0.6-20.5
				c2.6-2.9,4.4-3.1,11.7-3.1c0.6,0,3.1,0,3.1,0c7.4,0,8.7-0.5,10.4-1.8c3.7-2.8,3.8-4.9-3.1-30.7l-6.5-24.1
				c-0.3-1.1,0.3-2.2,1.4-2.5l28.2-7.6c12.1-3.3,18.8-5.1,22.8-5.1c2.1,0,3.7,0.5,4.7,1.6c1.9,1.9,1.9,5,1.8,9.7v1.3
				c-0.1,10.8,1.6,13.7,5.1,15.5c1.8,0.9,4.3,1.4,7.4,1.4c10.4,0,22.8-5.4,25.5-11.2c1.7-3.7,1.7-7.2-3.2-15
				c-3.4-5.5-6.4-11.1-2.4-14c1.9-1.4,24.9-7.6,27.5-8.3l25.2-6.8c0.2,0,0.3-0.1,0.5-0.1c0.9,0,1.7,0.6,1.9,1.5l6.2,22.9
				c5.6,20.9,7.5,24.2,7.9,24.8c1.3,1.5,2.1,1.8,2.9,1.8c2.1,0,5.4-1.9,11.1-6.4c6-4.8,9.7-7.2,13-7.2c3.4,0,5.7,2.7,7.5,5.2
				c5.2,7.2,8.8,24.1,6.4,30.1c-0.9,2.2-2.6,5-4.4,5.9c-0.4,0.2-1.5,0.8-8.2,0.8c-1.7,0-3.5,0-5.2-0.1c-1.5-0.1-2.9-0.1-4.1-0.1
				c-8.7,0-9.4,1.9-9.7,5.1c0,1.4,2.5,13.2,7.1,30.6l7.5,28.1c0.1,0.5,0.1,1.1-0.2,1.5s-0.7,0.8-1.2,0.9l-23.4,6.3
				c-10.9,2.9-23.9,6.1-27.6,6.1c-0.2,0-0.3,0-0.4,0c-8.1-0.6-8.7-7.5-8.3-13.4c0.4-5.4-0.1-12.4-4.4-14.9c-1.5-0.9-4-1.3-7.2-1.3
				c-5.1,0-11.4,1.2-17.5,3.3c-7.9,2.7-12.1,5.4-13.2,8.5c-0.9,2.6,0.1,6.2,3.1,11.2c6.2,10.1,7.2,11.9,5.8,15.6
				c-1.3,3.3-4.1,4.2-25.8,10.4l-23.6,6.7C196.4,366.2,196.2,366.3,196,366.3z"/>
			<path class="st19" d="M300.6,184.5l6.2,22.9c4,15.1,6.9,23.8,8.3,25.5c1.3,1.6,2.7,2.5,4.4,2.5c2.7,0,6.4-2.2,12.3-6.9
				c5.8-4.6,9.1-6.8,11.7-6.8c2.2,0,3.8,1.5,5.9,4.4c4.8,6.6,8.3,22.8,6.2,28.2c-0.9,2.1-2.4,4.3-3.4,4.8c-0.7,0.4-3.7,0.6-7.3,0.6
				c-1.6,0-3.4,0-5.2-0.1c-1.5-0.1-2.9-0.1-4.2-0.1c-8.6,0-11.2,1.8-11.7,6.9c-0.2,1.8,3,15.8,7.2,31.4l7.5,28.1l-23.4,6.3
				c-13.6,3.6-24.2,6-27.1,6c-0.1,0-0.2,0-0.3,0c-5.1-0.4-6.9-3.6-6.4-11.3c0.6-8.6-1.3-14.4-5.4-16.8c-1.9-1.1-4.7-1.6-8.2-1.6
				c-5.2,0-11.7,1.2-18.1,3.4c-15.6,5.3-18.3,11-11.1,22.7c6.2,10.1,6.6,11.2,5.6,13.8c-0.9,2.2-3.4,3.2-24.5,9.2l-23.6,6.7
				l-7.5-28.1l0,0c-7.2-26.7-7.7-28.2-10.7-30.5c-1.4-1-3-1.6-4.9-1.6c-3.2,0-7,1.5-11.5,4.6c-4,2.7-7.1,4.1-9.6,4.1
				c-3.9,0-6.5-3.2-8.9-10.1c-3.5-9.7-3.8-15.4-1-18.5c1.9-2.1,2.9-2.5,10.2-2.5c0.6,0,1.2,0,1.9,0c0.4,0,0.8,0,1.2,0
				c7.3,0,9.3-0.4,11.7-2.2c4.8-3.7,4.6-6.6-2.4-32.8l-6.5-24.1l25.1-6.7c13.9-3.7,21.4-5.8,25.4-5.8c5,0,4.6,3.2,4.5,10.6
				c-0.1,10.6,1.4,14.8,6.2,17.3c2.2,1.2,5.1,1.7,8.3,1.7c10.4,0,24.1-5.5,27.3-12.4c2.3-4.9,1.4-9.4-3.3-16.9
				c-4.2-6.7-5-9.8-2.9-11.3c0.9-0.7,13-4.2,26.8-7.9L300.6,184.5 M300.6,180.5c-0.3,0-0.7,0-1,0.1l-25.2,6.8
				c-17.2,4.6-26.7,7.5-28.1,8.6c-1.4,1-3.6,3.4-2.4,7.9c0.6,2.2,1.9,4.9,4.3,8.7c4.4,7.1,4.5,10,3,13.1c-2.3,5-14.3,10.1-23.6,10.1
				c-2.7,0-4.9-0.4-6.4-1.2c-2.5-1.3-4.2-3-4.1-13.7v-1.3c0.1-5,0.1-8.6-2.4-11.1c-1.5-1.5-3.5-2.2-6.2-2.2
				c-4.2,0-10.6,1.7-23.3,5.1l-3.2,0.8l-25.1,6.7c-1,0.3-1.9,0.9-2.4,1.9c-0.5,0.9-0.7,2-0.4,3l6.5,24.1c3.4,12.8,5.2,20,5.5,24.1
				c0.2,3-0.3,3.4-1.7,4.5c-1.3,1-2.1,1.4-9.2,1.4c-0.4,0-0.8,0-1.2,0c-0.7,0-1.3,0-1.9,0c-7.4,0-10.1,0.3-13.2,3.8
				c-4.9,5.5-2.6,14.4,0.2,22.5c2.1,5.9,5.5,12.7,12.7,12.7c3.3,0,7-1.5,11.9-4.8c4.6-3.2,7.6-3.9,9.2-3.9c1,0,1.8,0.2,2.5,0.8
				c1.9,1.4,2.5,3,9.3,28.3l7.5,28.1c0.3,1,1,1.9,1.9,2.4c0.6,0.3,1.3,0.5,2,0.5c0.4,0,0.7-0.1,1.1-0.2l23.6-6.7
				c22.1-6.3,25.5-7.2,27.2-11.6c1.8-4.7,0.2-7.4-5.9-17.3c-2.7-4.4-3.7-7.5-3-9.5c0.9-2.5,4.8-4.9,12-7.3c5.8-2,12-3.2,16.8-3.2
				c3.9,0,5.6,0.7,6.2,1.1c2.7,1.5,3.9,6.2,3.4,13c-0.2,3.6-1,14.7,10.1,15.5c0.2,0,0.4,0,0.6,0c4.9,0,22.8-4.7,28.1-6.1l23.4-6.3
				c2.1-0.6,3.4-2.8,2.8-4.9l-7.5-28.1c-4.5-16.6-6.9-28-7.1-30.1c0.2-2.1,0.5-3.2,7.7-3.2c1.2,0,2.5,0,4,0.1
				c1.8,0.1,3.6,0.1,5.3,0.1c7.1,0,8.5-0.7,9.1-1c3.2-1.6,5.2-6.4,5.4-6.9c2.8-7.1-1.5-24.9-6.7-32.1c-2.3-3.1-4.9-6-9.1-6
				c-3.9,0-7.8,2.6-14.2,7.7c-5,4-8.3,6-9.8,6c-0.1,0-0.5,0-1.3-1c-0.4-0.6-2.2-4.1-7.6-24.1l-6.2-22.9
				C304,181.7,302.3,180.5,300.6,180.5L300.6,180.5z"/>
		</g>
		<path class="st21" d="M572.6,51.3c-5.2-4.2-9.9-7.8-14.2-10.7c-0.8,3.4-1.2,6.5-0.9,7.2C558.2,50.1,561.7,51,572.6,51.3z"/>
		<path class="st21" d="M480.8,27.4L480.8,27.4v24.1h19.9c18,0,20.1-0.2,22.2-1.9l2.3-1.9l-2.2-6.9c-2.1-6.7-2.7-10.7-1.7-13.5
			c-6.3-2.3-13.8-5.4-20.8-8.8c-7.1-3.5-13.1-6.1-19.9-8.1C480.8,14.4,480.8,19.9,480.8,27.4z"/>
		<path class="st22" d="M631.3,185.5l-21,0.5l-0.2,19c-0.1,10.5,0.2,19.6,0.6,20.4c0.7,1.1,2.1,0.8,7.5-1.7
			c8.8-4.1,12.6-4.8,16.4-2.8c2.7,1.4,4.4,3,5.3,6c7.5-9.3,8.6-16.6,9.6-42.3C645.9,185.1,640.2,185.3,631.3,185.5z"/>
		<path class="st23" d="M94.8,180.4v-11.2c-3.4,3.9-6.3,7.8-8.4,11.3L94.8,180.4z"/>
		<path class="st14" d="M299.5,543.5c-0.2-1-0.8-1.6-1.6-2c-0.2-0.1-0.4-0.2-0.7-0.3C297.9,542,298.7,542.8,299.5,543.5z"/>
		<path class="st14" d="M152.8,80.5c4.2,1.1,15.2,0.4,17.9-1c3-1.6,3.3-4.2,1.1-11.1c-0.2-0.6-0.4-1.2-0.5-1.7
			c-6.6,3.6-13.1,8.3-19.1,13.7C152.4,80.4,152.6,80.5,152.8,80.5z"/>
		<path class="st24" d="M382.7,0.5c-0.4,0.6-0.9,1.2-1.4,1.7c-4,4-6.7,4.1-17,0.8c-4.2-1.4-8-2.2-8.5-1.9s-0.9,11.8-0.9,25.5v24.9
			h21c16.1,0,21.8,0.3,24.5,1.5c4.8,2,5.9,5.2,4,12.5c-1.3,5-2.1,13-1.3,13c0.1,0,2,0.7,4.3,1.5l0,0c2.7,1,6.1,1.3,10.2,1
			c11.2-0.9,12.5-2.9,9.2-14c-4.3-14.6-2.7-15.5,27.5-15.5h21.5v-24c0-8.8,0-14.6-0.2-18.4c-13.6-3.3-31.6-4.9-66.3-7
			C399,1.4,390.2,0.9,382.7,0.5z"/>
		<path class="st12" d="M248.3,442.7l-22.5-0.3v19.3c0.1,0,0.3,0,0.4,0c13-0.4,30.3,0.7,38.5,2.6c2,0.5,3.8,0.8,5.3,1.3
			c-1.2-2.6-0.9-6.1,0.8-12.4c1.5-5.7,1.8-8.2,1-9C271.1,443.4,262.9,442.9,248.3,442.7z"/>
		<path class="st4" d="M608.5,102.9c-2.8,4.3-6,5-14.7,3.2c-7.4-1.6-7.5-1.6-9.3,0.5c-1.4,1.6-1.7,4-1.7,10.3
			c0,10.8,0.5,11.5,6.7,9.7c6.9-2,12.8-2.4,15.3-1.1c4.5,2.4,5.2,6.7,5.3,31.8l0,0l0.1,23.3l20.3-0.3c10-0.2,16-0.3,19.3-0.9
			c0.2-4.9,0.2-9.5,0.2-13.7c-2.4-7-2.6-10.5-0.6-12.8c-2.4-26-12.2-40.4-39.4-67.2C610.2,98.3,609.9,100.6,608.5,102.9z"/>
		<path class="st22" d="M611,258c-0.2,0.2-0.4,3.5-0.6,8.6c2.9-2.6,5.2-5.1,6.7-7.5C613.8,258.2,611.2,257.7,611,258z"/>
		<path class="st25" d="M94.8,207.3L94.3,186l-10.8-0.1c-0.6,1.5-1,2.8-1,3.8c0,4.7-4.1,19.4-9.2,32.7c-10.3,27-11.2,40.6-4.6,64.8
			c1.5,5.5,3.6,13.6,5.6,21.4h20.4l0.3-26.1l0.3-26.1l2.7-2l2.7-2l8.7,2.7c9.8,3.1,12.7,2.8,14.8-1.2c3.4-6.6,2.8-23.2-1-27.4
			c-2.3-2.6-4.1-2.3-13.2,1.7c-8.9,3.9-9.9,4.1-12.7,2.1C95.5,228.7,95.3,226.9,94.8,207.3z"/>
		<path class="st26" d="M78,322.9c2.9,11.9,8.7,23.1,15.8,31.9c0.6-3.5,0.7-9.6,0.8-19.8l0.3-21.4l-19.3-0.3
			C76.4,316.8,77.3,320,78,322.9z"/>
		<g>
			<path class="st5" d="M139.5,183.1c-0.3,0-0.5-0.1-0.8-0.2l-25.2-10.7c-26.2-11.1-26.4-12.1-26.6-13.4c-0.1-0.6-0.3-2.2,6.4-9.7
				c5-5.6,7-9.5,6.7-12.7c-0.3-2.8-2.4-5.6-6.8-9c-6.1-4.7-8.6-5.8-17.5-7.9c-2.4-0.6-4.6-0.9-6.4-0.9c-3.1,0-5.4,0.8-6.9,2.4
				c-2.5,2.6-3.5,7.4-3.2,14.8c0.2,4,0.3,9-0.2,10.1c-0.3,0.6-0.9,1.3-2,1.3l0,0c-2.5,0-18.5-6.7-21.7-8.1l-20.7-8.8
				c-1-0.4-1.5-1.6-1.1-2.6l8.3-19.7c8.8-20.8,9.4-24.8,7.1-27.7c-1.9-2.3-4.4-3.4-14.1-3.4c-2.9,0-9.8-0.2-11.5-1.8
				c-4.2-4.1,2-21.3,7.7-27.6c1.3-1.4,3.1-3.1,5.5-3.1c2.9,0,5.9,2.4,9.9,6.4c4.8,4.8,8.1,6.9,10.7,6.9c1.7,0,3.4-0.9,5.4-3
				c2.5-2.5,4.9-7.4,12.8-26l9.8-23.2c0.3-0.8,1.1-1.2,1.8-1.2c0.3,0,0.5,0.1,0.8,0.2l21.1,8.9c16.8,7.1,21.8,9.2,22.8,13
				c0.7,2.7-1.1,4.9-3.7,8.2l-0.2,0.2c-4.9,6.1-7.4,11.3-6.9,14.3c0.9,5.8,16,13.8,26.1,13.8c2.3,0,4-0.4,5.1-1.3
				c2.3-1.8,4.1-6.7,4.7-12.7c0.7-6.3,1.6-11.5,6.2-11.5c0.3,0,0.7,0,1,0.1c2,0.3,16.1,6.3,25.1,10.2l22.1,9.7
				c1,0.4,1.5,1.6,1.1,2.6l-9.1,22.9c-5.4,13.5-8.6,22.9-8.8,24.4c0.2,2.6,1.4,5.2,12.8,6.3c6.5,0.6,12.3,1.7,12.5,8.1
				c0.1,3.7-3.1,14.3-5.2,17.1c-2.9,4-5.6,6.6-9.2,6.6c-2.5,0-5-1.3-8.8-4.4c-4.3-3.6-8.6-5.8-11.4-5.8c-0.1,0-0.3,0-0.4,0
				c-3,0.3-6,5.5-14.4,25.5l-8.9,21c-0.2,0.5-0.6,0.9-1.1,1.1C140,183.1,139.8,183.1,139.5,183.1z"/>
			<path class="st1" d="M67.1,6.5l20.5,8.7c25.2,10.7,25.1,10.5,18.7,18.5c-5.3,6.7-7.9,12.2-7.3,15.8c1.2,7.4,17.7,15.5,28.1,15.5
				c2.6,0,4.9-0.5,6.3-1.7c2.7-2.2,4.8-7.4,5.5-14c0.8-7.3,1.8-9.8,4.3-9.8c0.2,0,0.5,0,0.7,0.1c1.4,0.2,12.4,4.8,24.6,10.1
				l22.1,9.7l-9.1,22.9c-5,12.6-9.1,23.9-9,25.1c0.3,5,4.3,7.3,14.6,8.3c8,0.8,10.6,2.3,10.7,6.2c0.1,3.3-3,13.4-4.8,15.9l0,0
				c-2.9,3.9-5.1,5.8-7.6,5.8c-2.1,0-4.4-1.3-7.5-3.9c-4.7-3.9-9.4-6.2-12.7-6.2c-0.2,0-0.4,0-0.6,0c-4.1,0.4-6.9,5-16.1,26.7
				l-8.9,21l-25.2-10.7C99,164,89.2,159.4,89,158.6c-0.1-0.7,2.5-4.3,5.9-8.1c9.8-11,9.7-16.9-0.3-24.6c-6.4-4.9-9.1-6.1-18.3-8.3
				c-2.6-0.6-4.9-0.9-6.9-0.9c-9,0-12.7,6.1-12.1,19.3c0.2,4.6,0.2,8.7,0,9.2h-0.1c-1.3,0-10.3-3.4-20.9-7.9l-20.7-8.8l8.3-19.7
				c8.9-21,10-25.8,6.8-29.7c-2.6-3.2-6.3-4.2-15.6-4.2c-4.9,0-9.4-0.6-10.1-1.2C2.2,71,7.2,55.1,12.8,48.8c1.4-1.6,2.6-2.4,4-2.4
				c2.1,0,4.5,1.8,8.5,5.9c5,5.1,8.8,7.5,12.1,7.5c2.4,0,4.5-1.2,6.9-3.6c2.8-2.8,5.1-7.6,13.2-26.6L67.1,6.5 M67.1,2.5
				c-0.5,0-1,0.1-1.5,0.3c-1,0.4-1.8,1.2-2.2,2.1l-9.8,23.2c-7.6,18.1-10.1,23-12.3,25.3c-2.1,2.1-3.3,2.4-4,2.4c-2,0-5-2.1-9.3-6.3
				c-4.5-4.6-7.7-7-11.3-7c-3.3,0-5.6,2.1-7,3.7c-3,3.3-5.9,9-7.9,15.2c-3.6,11.4-0.7,14.2,0.3,15.2c0.6,0.6,2.4,2.3,12.8,2.3
				c8.8,0,11.1,0.9,12.5,2.7c0.5,0.7,1.2,1.4,0.3,5.1c-1,4.3-3.8,11.3-7.7,20.6L11.7,127c-0.4,1-0.4,2.1,0,3.1s1.2,1.8,2.1,2.2
				l20.7,8.8c8.9,3.8,20,8.2,22.5,8.2c1.7,0,3.2-1,3.8-2.5c0.3-0.6,0.7-1.7,0.4-10.9c-0.3-6.7,0.6-11.2,2.7-13.3
				c0.7-0.8,2.1-1.8,5.5-1.8c1.7,0,3.7,0.3,6,0.8c8.7,2,10.9,3,16.8,7.5c3.9,3,5.8,5.4,6,7.6c0.2,2.6-1.7,6.1-6.2,11.2
				c-7.3,8.2-7.1,10-6.9,11.4c0.4,2.4,2,3.4,9.2,6.8c4.5,2.1,10.9,5,18.6,8.2l25.2,10.7c0.5,0.2,1,0.3,1.6,0.3c1.6,0,3-0.9,3.7-2.4
				l8.9-21c5.4-12.7,10.4-24.1,12.8-24.3c0.1,0,0.1,0,0.2,0c1.9,0,5.7,1.6,10.1,5.3c3,2.5,6.3,4.8,10,4.8c4.7,0,8-3.6,10.8-7.5
				c2.4-3.2,5.7-14.2,5.6-18.4c-0.2-8.7-9-9.5-14.3-10c-9.9-1-10.9-2.9-11-4.2c0.5-2.1,3.6-11,8.7-23.7l9.1-22.9
				c0.8-2-0.1-4.3-2.1-5.1l-22.1-9.7c-2.3-1-22.6-9.9-25.6-10.4c-0.5-0.1-0.9-0.1-1.4-0.1c-6.8,0-7.7,8-8.2,13.3
				c-0.7,6.1-2.5,10.1-4,11.3c-0.2,0.2-1.2,0.8-3.8,0.8c-9.6,0-23.4-7.6-24.1-12.1c-0.3-1.9,1.2-6.2,6.5-12.7l0.2-0.2
				c2.8-3.5,5-6.3,4.1-9.9c-1.2-4.7-6-6.7-23.9-14.3l-0.6-0.3L68.8,2.9C68.1,2.6,67.6,2.5,67.1,2.5L67.1,2.5z"/>
		</g>
	</g>
</g>
</svg>
