<?xml version="1.0" encoding="UTF-8" standalone="no"?>
<svg
   xmlns:dc="http://purl.org/dc/elements/1.1/"
   xmlns:cc="http://creativecommons.org/ns#"
   xmlns:rdf="http://www.w3.org/1999/02/22-rdf-syntax-ns#"
   xmlns:svg="http://www.w3.org/2000/svg"
   xmlns="http://www.w3.org/2000/svg"
   version="1.1"
   id="svg2"
   viewBox="0 0 639.24009 639.51145"
   height="180.48434mm"
   width="180.40776mm">
  <defs
     id="defs4" />
  <metadata
     id="metadata7">
    <rdf:RDF>
      <cc:Work
         rdf:about="">
        <dc:format>image/svg+xml</dc:format>
        <dc:type
           rdf:resource="http://purl.org/dc/dcmitype/StillImage" />
        <dc:title></dc:title>
      </cc:Work>
    </rdf:RDF>
  </metadata>
  <g
     transform="translate(697.95891,-272.26294)"
     id="layer1">
    <path
       id="path4197"
       d="m -622.55364,738.8502 c -7.52107,-2.68744 -15.95726,-10.67195 -20.02259,-18.95059 -8.53959,-17.39 -1.11356,-40.21936 15.94923,-49.03174 3.79474,-1.95986 4.758,-3.38342 6.48345,-9.58158 4.02874,-14.47212 16.68812,-24.14529 31.55963,-24.11507 7.60888,0.0155 16.38039,2.99401 20.92269,7.10474 1.2197,1.10381 2.37525,1.77601 2.56789,1.49377 0.19263,-0.28225 2.44573,-3.74877 5.00689,-7.70338 8.54734,-13.19769 22.47127,-20.3349 37.82091,-19.38646 22.33496,1.38004 38.68314,17.57241 40.28042,39.89652 0.48537,6.78376 1.03027,8.55767 2.63166,8.56736 3.94948,0.0239 14.59044,6.0131 19.14535,10.77588 17.34545,18.13702 12.40503,47.89077 -9.8386,59.25305 l -6.03721,3.08386 -70.625,0.22937 c -59.86018,0.19442 -71.4206,-0.0549 -75.84472,-1.63573 z m 340.21972,-0.91189 c -12.38204,-5.78256 -19.45094,-14.54368 -22.00806,-27.27656 -3.54039,-17.62889 8.80142,-38.00904 25.76507,-42.54612 l 5.31334,-1.4211 0.60696,-8.4831 c 2.40519,-33.61555 41.14188,-51.42733 67.95103,-31.24502 5.40018,4.06534 12.98935,13.41091 14.5751,17.94832 0.41865,1.19793 1.14836,1.06754 2.94891,-0.52693 7.31355,-6.47653 21.24357,-8.99817 31.9641,-5.78622 9.81274,2.93997 19.64615,14.37158 21.67776,25.201 0.70416,3.75358 1.80408,5.15224 5.55756,7.06713 2.5738,1.31305 7.29112,5.29196 10.48292,8.84201 13.78385,15.33095 12.20373,38.26118 -3.59487,52.16765 -10.41085,9.164 -8.87457,9.00369 -86.15,8.98998 l -68.83982,-0.0125 -6.25,-2.91883 z m -333.77102,-102.7846 c 7.14367,-30.54354 21.8428,-61.83546 41.37527,-88.08085 57.41682,-77.14983 153.07383,-113.29293 247.84016,-93.64409 87.45916,18.13378 161.5083,87.82924 184.46805,173.62238 l 3.14628,11.7566 -4.02938,-3.89907 c -6.67488,-6.45905 -14.78007,-9.33928 -24.86381,-8.83557 l -8.67706,0.43345 -4.71465,-11.97495 c -22.14479,-56.24646 -71.45313,-103.21864 -128.27384,-122.19639 -23.85839,-7.96855 -42.2035,-10.78697 -69.375,-10.65832 -33.59911,0.15908 -60.9703,6.18075 -89.25023,19.63507 -48.93062,23.27901 -88.21658,65.38526 -106.91634,114.59174 l -4.02936,10.60285 -9.58954,0 c -8.20954,0 -10.43073,0.4945 -15.435,3.43626 -3.21501,1.88994 -7.54651,5.49991 -9.62555,8.02215 l -3.78007,4.58588 1.73007,-7.39714 z m 48.19972,-1.96311 -3.07129,-2.50389 2.2512,-6.46508 c 4.42101,-12.69635 13.5525,-30.43804 22.94936,-44.58865 11.41332,-17.18715 33.87037,-40.28107 50.66362,-52.10045 21.539,-15.1595 49.52927,-27.32221 76.34371,-33.17388 10.99641,-2.39974 16.42802,-2.76815 40.8097,-2.768 30.44861,1.8e-4 40.38932,1.3929 63.125,8.84396 57.18451,18.74081 106.1369,65.93062 126.14292,121.60105 2.98089,8.29484 3.13343,9.48026 1.4381,11.17559 -1.04307,1.04307 -2.07095,1.64873 -2.28417,1.34591 -0.21321,-0.30284 -2.44974,-3.73585 -4.97005,-7.62895 -7.23241,-11.1718 -18.3614,-18.06478 -31.35814,-19.42231 l -6.46866,-0.67568 -6.82848,-10.16182 c -8.48896,-12.6329 -30.05585,-34.33503 -42.68777,-42.95548 -18.89056,-12.89155 -40.07103,-21.93912 -62.69166,-26.77974 -16.88286,-3.61277 -48.56918,-3.93358 -64.96836,-0.65778 -12.75284,2.54742 -33.17994,9.43895 -43.99137,14.84144 -25.00468,12.49488 -49.15815,33.80953 -65.08188,57.43263 -5.29047,7.84848 -5.90921,8.33901 -11.54527,9.15296 -13.33511,1.92585 -25.8596,10.74062 -31.844,22.41188 l -2.86121,5.58019 -3.0713,-2.5039 z m 294.07985,-12.66113 c -10.4507,-15.49805 -27.87356,-30.838 -45.7045,-40.2405 -52.65578,-27.76611 -119.5562,-14.13331 -156.55405,31.90218 -4.125,5.13263 -8.37829,10.68326 -9.45176,12.33471 l -1.95175,3.00265 -6.0663,-6.48535 c -3.71262,-3.9691 -8.858,-7.76679 -13.26159,-9.78808 l -7.1953,-3.30271 5.08702,-7.59791 c 7.22042,-10.78429 29.80113,-32.8031 41.58968,-40.55471 17.97549,-11.81988 38.03671,-20.05552 60,-24.63153 15.14736,-3.15591 43.92664,-2.88971 60.29209,0.55769 30.42545,6.40916 56.10168,19.68689 78.78492,40.74136 8.72753,8.10085 25.29799,28.63561 25.29799,31.35026 0,0.72149 -2.10736,2.07384 -4.68304,3.00522 -2.58407,0.93441 -8.23852,5.2489 -12.61573,9.62611 -4.36299,4.36299 -8.02126,7.91489 -8.12947,7.89311 -0.10825,-0.0217 -2.55541,-3.5374 -5.43821,-7.8125 z"
       style="fill:#2f2f2f" />
  </g>
</svg>
