<?xml version="1.0" encoding="utf-8"?>
<!-- Generator: Adobe Illustrator 21.0.2, SVG Export Plug-In . SVG Version: 6.00 Build 0)  -->
<svg version="1.1" id="Layer_1" xmlns="http://www.w3.org/2000/svg" xmlns:xlink="http://www.w3.org/1999/xlink" x="0px" y="0px"
	 viewBox="0 0 513 513" style="enable-background:new 0 0 513 513;" xml:space="preserve">
<style type="text/css">
	.st0{fill:#7CE726;}
</style>
<g>
	<path class="st0" d="M228.3,381.6c-1.6-1.1-3.1-0.7-6.8,1.8c-2.6,1.8-3.2,1.9-5.9,1.7c-2.1-0.2-3.6-0.7-5.1-1.7
		c-2.5-1.7-4.1-1.8-7.2-0.4c-6.5,3-2.9,9.5,7.2,12.9c3.4,1.1,9.9,0.6,13.4-1.2c3.6-1.8,6.8-4.8,7.3-6.9
		C231.6,386,230.1,382.7,228.3,381.6z"/>
	<path class="st0" d="M213.6,326.7c2.2-1.7,3.5-1.8,6.2-0.6c5,2.2,8.9,0.8,8.9-3.2c0-4.1-5.6-7.8-11.9-7.8c-4.1,0-7.5,1.3-10.2,4
		c-2.4,2.4-2.3,4,0.3,6.6C209.3,328,211.4,328.3,213.6,326.7z"/>
	<path class="st0" d="M256.5,0.5c-141.4,0-256,114.6-256,256s114.6,256,256,256s256-114.6,256-256S397.9,0.5,256.5,0.5z
		 M161.4,155.5c2.9-11.8,8.9-23.8,16.9-33.9c23.5-29.7,62.5-43.6,101.3-36c35.7,7,66,33.8,75.4,66.8l1.3,4.5l-1.6-1.5
		c-2.7-2.5-6-3.6-10.2-3.4l-3.5,0.2l-1.9-4.6c-9-21.6-29.2-39.7-52.4-47c-9.7-3.1-17.2-4.2-28.3-4.1c-13.7,0.1-24.9,2.4-36.5,7.6
		c-20,9-36,25.2-43.7,44.1l-1.6,4.1h-3.9c-3.4,0-4.3,0.2-6.3,1.3c-1.3,0.7-3.1,2.1-3.9,3.1l-1.5,1.8L161.4,155.5z M297.9,124.1
		c-7.7-5-16.4-8.4-25.6-10.3c-6.9-1.4-19.8-1.5-26.5-0.3c-5.2,1-13.6,3.6-18,5.7c-10.2,4.8-20.1,13-26.6,22.1
		c-2.2,3-2.4,3.2-4.7,3.5c-5.4,0.7-10.6,4.1-13,8.6l-1.2,2.1l-1.3-1v0l-1.3-1l0.9-2.5c1.8-4.9,5.5-11.7,9.4-17.2
		c4.7-6.6,13.8-15.5,20.7-20c8.8-5.8,20.2-10.5,31.2-12.8c4.5-0.9,6.7-1.1,16.7-1.1c12.4,0,16.5,0.5,25.8,3.4
		c23.4,7.2,43.4,25.4,51.5,46.8c1.2,3.2,1.3,3.6,0.6,4.3c-0.4,0.4-0.8,0.6-0.9,0.5s-1-1.4-2-2.9c-3-4.3-7.5-7-12.8-7.5l-2.6-0.3
		l-2.8-3.9C311.9,135.8,303.1,127.4,297.9,124.1z M313.8,144.9c0,0.3-0.9,0.8-1.9,1.2c-1.1,0.4-3.4,2-5.2,3.7c-1.8,1.7-3.3,3-3.3,3
		c0,0-1-1.4-2.2-3c-4.3-6-11.4-11.9-18.7-15.5c-21.5-10.7-48.8-5.4-64,12.3c-1.7,2-3.4,4.1-3.9,4.7l-0.8,1.2l-2.5-2.5
		c-1.5-1.5-3.6-3-5.4-3.8l-2.9-1.3l2.1-2.9c3-4.1,12.2-12.6,17-15.6c7.3-4.5,15.5-7.7,24.5-9.5c6.2-1.2,17.9-1.1,24.6,0.2
		c12.4,2.5,22.9,7.6,32.2,15.7C307,136,313.8,143.9,313.8,144.9z M150.5,188.1c-3.5-6.7-0.5-15.5,6.5-18.9c1.6-0.8,1.9-1.3,2.6-3.7
		c1.6-5.6,6.8-9.3,12.9-9.3c3.1,0,6.7,1.2,8.5,2.7c0.5,0.4,1,0.7,1,0.6c0.1-0.1,1-1.4,2-3c3.5-5.1,9.2-7.8,15.5-7.5
		c9.1,0.5,15.8,6.8,16.5,15.4c0.2,2.6,0.4,3.3,1.1,3.3c1.6,0,6,2.3,7.8,4.1c7.1,7,5.1,18.4-4,22.8l-2.5,1.2l-28.9,0.1
		c-24.5,0.1-29.2,0-31-0.6C155.6,194.3,152.2,191.2,150.5,188.1z M341.5,367.4v89.5l-1.6,1.6l-1.6,1.6l-53.9,0
		c-35.6,0-54.2-0.2-54.8-0.6c-2.3-1.3-2.6-3.1-2.6-15.3v-11.6l-6.4-0.6c-20.5-2-32.2-9.4-37.2-23.2c-2.1-5.9-2.6-10.5-2.6-25.2V370
		h-8.9c-8.3,0-9-0.1-10.7-1.2c-1.2-0.8-2-1.9-2.3-3.1c-0.4-1.7,0.6-4.4,10.7-29l11.2-27.1l0-16.1c0-11.6,0.2-17.4,0.8-20.9
		c2.6-15.6,9.1-28.3,20.3-39.3c8.5-8.4,17.2-13.7,28-17.3c8.9-2.9,11-3.1,30.9-3.1c15.8,0,19.1,0.1,23.1,1
		c14.5,3.1,25.7,9.2,36.1,19.6c8.8,8.8,14,17.2,17.8,28.7C341.7,273.4,341.5,268.3,341.5,367.4z M363.6,192.7
		c-4.3,3.5-3.6,3.5-35.2,3.5l-28.1,0l-2.6-1.1v0c-5.1-2.2-7.9-5.6-9-10.5c-1.4-6.8,3.6-14.6,10.5-16.4l2.2-0.5l0.2-3.3
		c1-12.9,16.8-19.8,27.8-12c2.2,1.6,5.3,5.2,6,6.9c0.2,0.5,0.5,0.4,1.2-0.2c3-2.5,8.7-3.5,13.1-2.2c4,1.1,8,5.5,8.9,9.7
		c0.3,1.4,0.7,2,2.3,2.7c1.1,0.5,3,2,4.3,3.4C370.7,178.5,370.1,187.3,363.6,192.7z"/>
</g>
</svg>
