<?xml version="1.0" encoding="utf-8"?>
<!-- Generator: Adobe Illustrator 21.0.2, SVG Export Plug-In . SVG Version: 6.00 Build 0)  -->
<svg version="1.1" id="Layer_1" xmlns="http://www.w3.org/2000/svg" xmlns:xlink="http://www.w3.org/1999/xlink" x="0px" y="0px"
	 viewBox="0 0 513 513" style="enable-background:new 0 0 513 513;" xml:space="preserve">
<style type="text/css">
	.st0{fill:#7CE726;}
</style>
<path class="st0" d="M256.5,0.5c-141.4,0-256,114.6-256,256s114.6,256,256,256s256-114.6,256-256S397.9,0.5,256.5,0.5z M160.4,195.1
	c0-53.1,43-96.1,96.1-96.1s96.1,43,96.1,96.1v34.2c-21.7,8.5-38.2,27.4-43.3,50.6c-13.3-2.4-30.7-4.2-52.9-4.2s-39.5,1.8-52.9,4.2
	c-5-23.2-21.5-42.1-43.3-50.6v-34.2H160.4z M390.6,305.3c-3.6,1.5-5.9,5-5.9,8.9l-6.4,25.6c0,23-17.4,42-39.7,44.5
	c5.3,2.5,8.9,7.8,8.9,14.1c0,8.6-7,15.6-15.6,15.6s-15.6-7-15.6-15.6c0-6,3.4-11.1,8.4-13.8H188.5c4.9,2.6,8.4,7.8,8.4,13.8
	c0,8.6-7,15.6-15.6,15.6s-15.6-7-15.6-15.6c0-6.2,3.7-11.5,8.9-14.1c-22.3-2.5-39.8-21.5-39.8-44.5l-6.4-25.6c0-3.9-2.3-7.4-5.9-8.9
	c-12-5-19.7-16.6-19.7-29.6c0-17.7,14.4-32,32-32c28.3,0,51.3,23,51.3,51.3v9.4c11.4-4.1,33.3-9.4,70.5-9.4s59.1,5.3,70.5,9.4V295
	c0-28.3,23-51.3,51.3-51.3c17.7,0,32,14.4,32,32C410.3,288.7,402.5,300.3,390.6,305.3z"/>
</svg>
