<?xml version="1.0" encoding="UTF-8" standalone="no"?>
<!-- Created with Inkscape (http://www.inkscape.org/) -->

<svg
   xmlns:dc="http://purl.org/dc/elements/1.1/"
   xmlns:cc="http://creativecommons.org/ns#"
   xmlns:rdf="http://www.w3.org/1999/02/22-rdf-syntax-ns#"
   xmlns:svg="http://www.w3.org/2000/svg"
   xmlns="http://www.w3.org/2000/svg"
   xmlns:sodipodi="http://sodipodi.sourceforge.net/DTD/sodipodi-0.dtd"
   xmlns:inkscape="http://www.inkscape.org/namespaces/inkscape"
   width="210mm"
   height="297mm"
   viewBox="0 0 744.09448819 1052.3622047"
   id="svg2"
   version="1.1"
   inkscape:version="0.91 r13725"
   sodipodi:docname="user-head.svg">
  <defs
     id="defs4" />
  <sodipodi:namedview
     id="base"
     pagecolor="#ffffff"
     bordercolor="#666666"
     borderopacity="1.0"
     inkscape:pageopacity="0.0"
     inkscape:pageshadow="2"
     inkscape:zoom="0.35"
     inkscape:cx="336.42857"
     inkscape:cy="517.14286"
     inkscape:document-units="px"
     inkscape:current-layer="layer1"
     showgrid="false"
     inkscape:window-width="1280"
     inkscape:window-height="737"
     inkscape:window-x="-4"
     inkscape:window-y="-4"
     inkscape:window-maximized="1" />
  <metadata
     id="metadata7">
    <rdf:RDF>
      <cc:Work
         rdf:about="">
        <dc:format>image/svg+xml</dc:format>
        <dc:type
           rdf:resource="http://purl.org/dc/dcmitype/StillImage" />
        <dc:title></dc:title>
      </cc:Work>
    </rdf:RDF>
  </metadata>
  <g
     inkscape:label="Layer 1"
     inkscape:groupmode="layer"
     id="layer1">
    <path
       style="fill:#000000"
       d="m 309.68747,755.6549 c -5.23177,-3.04722 -5.93748,-7.23222 -5.93748,-35.2106 l 0,-26.68489 -14.71956,-1.47171 c -47.24003,-4.72318 -74.23553,-21.56267 -85.61823,-53.40766 -4.82811,-13.50748 -5.91221,-24.15217 -5.91221,-58.05194 l 0,-31.32306 -20.44015,0 c -19.21311,0 -20.69511,-0.17136 -24.68749,-2.85454 -2.77676,-1.86619 -4.61911,-4.35479 -5.32104,-7.1875 -0.97366,-3.92932 1.32611,-10.1448 24.68749,-66.7215 l 25.76119,-62.38852 0.005,-36.98648 c 0.004,-26.65495 0.51995,-40.12895 1.84843,-48.23646 5.87856,-35.876 21.00316,-65.21949 46.72295,-90.64798 19.62235,-19.40009 39.55845,-31.67733 64.54862,-39.75096 20.51355,-6.62735 25.26663,-7.10106 71.25,-7.10106 36.37903,0 44.03024,0.32774 53.125,2.27563 33.44604,7.16338 59.24061,21.14441 83.24579,45.12043 20.31559,20.2909 32.32555,39.62403 41.10235,66.16479 8.54627,25.84365 8.15186,14.1166 8.15186,242.38057 l 0,206.12589 -3.65385,3.65384 -3.65384,3.65385 -124.15866,-0.038 c -82.00634,-0.0251 -124.90132,-0.47057 -126.34617,-1.31212 z M 296.44163,606.42222 c 8.2411,-4.1133 15.69385,-11.16198 16.71431,-15.80808 0.94845,-4.31829 -2.39264,-11.80133 -6.45869,-14.46551 -3.76325,-2.46578 -7.21106,-1.56143 -15.61587,4.09599 -6.08068,4.09298 -7.34815,4.46781 -13.5848,4.01738 -4.83204,-0.34897 -8.35828,-1.50237 -11.85266,-3.87686 -5.86748,-3.98705 -9.38364,-4.18096 -16.58012,-0.91435 -15.07286,6.84185 -6.66927,21.86833 16.56119,29.61306 7.94761,2.64963 22.7341,1.37251 30.81664,-2.66163 z M 272.64392,449.67699 c 5.05113,-3.94465 8.10102,-4.26235 14.35608,-1.49542 11.49207,5.08347 20.49999,1.82257 20.49999,-7.42111 0,-9.52107 -12.99017,-18.04498 -27.5,-18.04498 -9.5201,0 -17.3241,3.05597 -23.45152,9.1834 -5.46283,5.46282 -5.26668,9.18209 0.80446,15.25322 5.5228,5.5228 10.41727,6.33099 15.29099,2.52489 z"
       id="path4147"
       inkscape:connector-curvature="0" />
  </g>
</svg>
