<?xml version="1.0" ?><svg height="500" id="svg2" version="1.1" width="500" xmlns="http://www.w3.org/2000/svg" xmlns:cc="http://creativecommons.org/ns#" xmlns:dc="http://purl.org/dc/elements/1.1/" xmlns:inkscape="http://www.inkscape.org/namespaces/inkscape" xmlns:rdf="http://www.w3.org/1999/02/22-rdf-syntax-ns#" xmlns:sodipodi="http://sodipodi.sourceforge.net/DTD/sodipodi-0.dtd" xmlns:svg="http://www.w3.org/2000/svg"><defs id="defs4"/><g id="layer1" transform="translate(0,-552.36218)"><path d="m 0,552.36216 0,500.00004 500,0 0,-500.00004 z" id="rect2989-1" style="fill:#537599;fill-opacity:1;stroke:none"/><g id="layer1-9" transform="translate(-549.00515,80.294372)"/><g id="layer1-6" transform="translate(-575.71429,39.999999)"/><g id="layer1-0" transform="translate(22.821431,485.03569)"/><path d="M 500,200.80357 500,500 326.78435,500 146.53525,319.7509 251.10587,213.89412 186.65725,149.4455 l 95.60927,-7.4263 70,70 94.96562,-63.98349 z" id="path2998" style="fill:#000000;stroke:none;stroke-width:1px;stroke-linecap:butt;stroke-linejoin:miter;stroke-opacity:1;opacity:0.29999999999999999" transform="translate(0,552.36218)"/><path d="M 264.96875 136.4375 C 243.68061 136.53671 230.10593 136.5625 210.96875 136.5625 C 194.96246 136.5625 185.97325 143.04155 185.6875 146.90625 C 185.42621 150.43974 193.59515 153.29689 198.5625 156.15625 C 203.35726 159.12862 207.6875 168.5643 207.6875 174.9375 L 207.6875 230.53125 C 207.6875 235.81438 206.48702 239.49415 202.21875 242.9375 C 200.18551 244.57779 197.76863 245.0145 195.15625 245 C 193.04218 244.98851 190.16687 244.59342 188.1875 242.03125 C 167.10434 214.74043 167.03476 211.3704 137.5 156.375 C 136.06753 153.70765 134.65235 150.87764 131.71875 148.75 C 128.78514 146.62234 124.43788 145.21875 117.46875 145.21875 C 93.72914 145.21875 79.078389 145.5625 63.46875 145.5625 C 48.693516 145.5625 50.114711 154.62343 52.09375 158.75 C 69.80776 195.68583 87.793369 230.95316 108.46875 266.75 C 132.68137 308.67113 154.81654 333.85122 192.0625 351.9375 C 200.70774 356.13554 216.29605 360.46875 234.3125 360.46875 L 272.59375 360.46875 C 277.51236 360.46875 285.6875 356.58793 285.6875 351.375 L 285.6875 322.65625 C 285.6875 314.44301 293.87647 311.45684 298.34375 309.4375 C 303.60679 307.05844 309.12599 310.80902 311.90625 313.78125 C 333.30728 336.66001 330.87524 334.17066 350.375 354.65625 C 354.78127 359.28529 358.10876 361.71875 366.4375 361.71875 C 422.6786 361.71875 422.72503 361.82627 436.15625 361.71875 C 439.84428 361.68922 445.32102 356.15657 446.53125 354 C 448.12884 351.15325 451.76078 340.99132 445.9375 334.40625 C 426.17295 312.05616 406.0268 291.59248 386.71875 271.28125 C 385.2466 269.73263 384.13425 267.63635 384.09375 265.5 C 384.04968 263.16379 385.35288 260.89583 386.71875 259 C 408.37403 228.94262 426.26232 203.49073 445.71875 171.875 C 452.04322 161.59803 451.22529 154.31948 450.0625 151.8125 C 448.71594 148.90933 444.57053 144.9005 439.8125 144.875 C 413.83 144.72921 402.59164 144.36545 374.875 144.40625 C 366.59645 144.41843 359.26458 143.78291 354.71875 153.75 C 342.5374 180.45853 322.66274 221.21392 305.40625 238.15625 C 302.21985 241.28331 297.96438 243.6067 294.25 243.625 C 290.53565 243.64314 286.5862 241.11308 286.03125 235.0625 C 285.60627 205.99428 285.95975 181.19485 285.8125 152.71875 C 285.76752 144.01461 282.09721 141.77505 279.3125 139.84375 C 275.53495 137.22393 269.56583 136.4156 264.96875 136.4375 z " id="rect2989-7" style="fill:#ffffff;fill-opacity:1;stroke:none" transform="translate(0,552.36218)"/></g></svg>