<?xml version="1.0" encoding="utf-8"?>
<!-- Generator: Adobe Illustrator 21.0.2, SVG Export Plug-In . SVG Version: 6.00 Build 0)  -->
<svg version="1.1" id="Слой_1" xmlns="http://www.w3.org/2000/svg" xmlns:xlink="http://www.w3.org/1999/xlink" x="0px" y="0px"
	 viewBox="0 0 436 43" style="enable-background:new 0 0 436 43;" xml:space="preserve">
<style type="text/css">
	.st0{fill:#FFFFFF;}
</style>
<g>
	<path class="st0" d="M158.4,17H158l-0.3,0.9l-1.4,4.4h3.8l-1.4-4.4C158.6,17.7,158.5,17.4,158.4,17z"/>
	<path class="st0" d="M199,17h-0.4l-0.3,0.9l-1.4,4.4h3.8l-1.4-4.4C199.2,17.7,199.1,17.4,199,17z"/>
	<path class="st0" d="M233,19.1c0,0.7,0.2,1.3,0.5,1.6c0.3,0.4,0.8,0.5,1.6,0.5h2.4V17c-0.4,0-1.2,0-2.3,0c-0.8,0-1.3,0.1-1.6,0.4
		C233.2,17.8,233.1,18.3,233,19.1z"/>
	<path class="st0" d="M217.1,21.6h-2.3v4.3c0.4,0,1.2,0,2.3,0c0.9,0,1.5-0.1,1.8-0.4c0.3-0.3,0.4-0.8,0.4-1.7c0-0.8-0.2-1.4-0.4-1.7
		C218.6,21.7,218,21.6,217.1,21.6z"/>
	<path class="st0" d="M259.6,17h-0.4l-0.3,0.9l-1.4,4.4h3.8l-1.4-4.4C259.7,17.7,259.6,17.4,259.6,17z"/>
	<path class="st0" d="M283.6,17c-1.2,0-1.9,0-2.4,0v4.5h2.4c0.8,0,1.4-0.2,1.7-0.5c0.3-0.3,0.5-0.9,0.5-1.8c0-0.9-0.2-1.5-0.5-1.8
		S284.4,17,283.6,17z"/>
	<polygon class="st0" points="117.5,24.2 117.5,25.5 119,25.5 119,27 120.3,27 121.3,25.9 118.6,23.2 	"/>
	<path class="st0" d="M432.5,0.5H3.5c-1.7,0-3,1.3-3,3v36c0,1.7,1.3,3,3,3h429.1c1.7,0,3-1.3,3-3v-36C435.5,1.8,434.2,0.5,432.5,0.5
		z M304.5,13.1c0-0.3,0.1-0.4,0.4-0.4h0.4c0.3,0,0.4,0.1,0.4,0.4V14c0,0.3-0.1,0.4-0.4,0.4h-0.4c-0.3,0-0.4-0.1-0.4-0.4V13.1z
		 M301.7,13.1c0-0.3,0.1-0.4,0.4-0.4h0.5c0.2,0,0.4,0.1,0.4,0.4V14c0,0.3-0.1,0.4-0.4,0.4H302c-0.2,0-0.4-0.1-0.4-0.4V13.1z
		 M120.9,28.5H116v-4.9l9.8-9.8l4.9,4.9L120.9,28.5z M133.3,16.1l-1.9,1.9l-4.9-4.9l1.9-1.9c0.3-0.3,0.6-0.4,1.1-0.4
		c0.4,0,0.8,0.1,1.1,0.4l2.8,2.7c0.3,0.3,0.4,0.7,0.4,1.1C133.8,15.4,133.6,15.8,133.3,16.1z M151.6,26.5c-0.5,0.4-1.4,0.6-2.7,0.6
		c-1.5,0-2.8-0.1-3.8-0.4l0.1-1c1.2,0.1,2.4,0.2,3.4,0.2c0.9,0,1.5-0.1,1.8-0.4c0.3-0.3,0.5-0.8,0.5-1.6c0-0.8-0.2-1.4-0.5-1.7
		c-0.3-0.3-1-0.5-1.9-0.5h-1.9v-1.1h1.9c0.8,0,1.3-0.1,1.6-0.4c0.3-0.3,0.4-0.7,0.4-1.5c0-0.7-0.2-1.2-0.5-1.5
		c-0.3-0.3-0.9-0.4-1.8-0.4c-0.6,0-1.6,0.1-2.8,0.2l-0.1-1.1c0.9-0.2,2-0.3,3-0.3c1.4,0,2.3,0.2,2.8,0.6s0.8,1.2,0.8,2.3
		c0,0.8-0.1,1.4-0.4,1.8c-0.3,0.4-0.8,0.6-1.4,0.7v0.1c0.8,0.1,1.3,0.4,1.7,0.8c0.3,0.5,0.5,1.2,0.5,2.1
		C152.3,25.4,152.1,26.1,151.6,26.5z M161.6,27l-1.1-3.5h-4.5l-1.1,3.5h-1.5l3.6-10.7c0.1-0.3,0.2-0.4,0.5-0.4h1.5
		c0.3,0,0.5,0.1,0.5,0.4L163,27H161.6z M172.4,27H171v-9.9h-5.1V27h-1.4V16h7.9V27z M183.4,27h-1.4v-8c0-0.5,0-0.9,0.1-1.3h-0.1
		c-0.1,0.4-0.3,0.8-0.6,1.2l-4.9,8.1h-1.4V16h1.4v8c0,0.4,0,0.8-0.1,1.3h0.1c0.2-0.4,0.4-0.8,0.6-1.2L182,16h1.5V27z M190.1,27.2
		c-1.6,0-2.7-0.4-3.4-1.3c-0.7-0.9-1-2.3-1-4.4s0.3-3.6,1-4.4c0.7-0.9,1.8-1.3,3.4-1.3c1.1,0,2.1,0.1,3,0.3l-0.1,1.1
		c-1-0.1-1.9-0.1-2.9-0.1c-1.1,0-1.8,0.3-2.2,1c-0.4,0.6-0.6,1.8-0.6,3.5s0.2,2.9,0.6,3.5c0.4,0.6,1.2,1,2.2,1
		c1.2,0,2.3-0.1,3.1-0.2l0.1,1.1C192.4,27.1,191.3,27.2,190.1,27.2z M202.1,27l-1.1-3.5h-4.5l-1.1,3.5H194l3.6-10.7
		c0.1-0.3,0.2-0.4,0.5-0.4h1.5c0.3,0,0.5,0.1,0.5,0.4l3.6,10.7H202.1z M211.7,17.2h-3.6V27h-1.4v-9.8h-3.6V16h8.5V17.2z M220,26.4
		c-0.5,0.5-1.4,0.7-2.6,0.7c-1.7,0-3,0-3.9-0.1h0V16h1.4v4.4h2.3c1.4,0,2.3,0.3,2.8,0.8s0.8,1.4,0.8,2.6
		C220.7,25.1,220.5,26,220,26.4z M226.7,27.2c-1.6,0-2.7-0.4-3.4-1.3c-0.7-0.9-1-2.3-1-4.4s0.3-3.6,1-4.4c0.7-0.9,1.8-1.3,3.4-1.3
		c1.1,0,2.1,0.1,3,0.3l-0.1,1.1c-1-0.1-1.9-0.1-2.9-0.1c-1.1,0-1.8,0.3-2.2,1c-0.4,0.6-0.6,1.8-0.6,3.5s0.2,2.9,0.6,3.5
		c0.4,0.6,1.2,1,2.2,1c1.2,0,2.3-0.1,3.1-0.2l0.1,1.1C229.1,27.1,228,27.2,226.7,27.2z M238.9,27h-1.4v-4.5c-0.2,0-0.5,0-1,0
		c-0.5,0-1,0-1.4,0c-0.7,0-1.2,0.4-1.5,1.2l-1,3.3h-1.5l1-3.4c0.3-0.9,0.8-1.4,1.5-1.6l0-0.1c-1.4-0.2-2.1-1.2-2-2.9
		c0-1.2,0.3-2,0.8-2.5s1.4-0.7,2.7-0.7c1.6,0,2.9,0,3.8,0.1V27z M253,27h-1.4v-5.3h-5.1V27h-1.4V16h1.4v4.5h5.1V16h1.4V27z
		 M262.7,27l-1.1-3.5h-4.5L256,27h-1.5l3.6-10.7c0.1-0.3,0.2-0.4,0.5-0.4h1.5c0.3,0,0.5,0.1,0.5,0.4l3.6,10.7H262.7z M277.1,27h-1.4
		v-9.9h-5.1V27h-1.4V16h7.9V27z M286.4,22c-0.5,0.5-1.4,0.7-2.6,0.7c-0.9,0-1.7,0-2.5-0.1V27h-1.4V16c0.9-0.1,2.2-0.1,3.8-0.1
		c1.3,0,2.3,0.2,2.8,0.7c0.5,0.5,0.8,1.4,0.8,2.7C287.1,20.6,286.9,21.5,286.4,22z M297.4,27h-1.4v-8c0-0.5,0-0.9,0.1-1.3h-0.1
		c-0.1,0.4-0.3,0.8-0.6,1.2l-4.9,8.1h-1.4V16h1.4v8c0,0.4,0,0.8-0.1,1.3h0.1c0.2-0.4,0.4-0.8,0.6-1.2L296,16h1.5V27z M306.2,20.6
		v1.1h-4.8v3c0,0.4,0.1,0.6,0.2,0.8s0.4,0.3,0.7,0.3h4.4l0.1,1.1c-1,0.1-2.6,0.1-4.7,0.1c-0.7,0-1.2-0.2-1.6-0.5
		c-0.4-0.3-0.6-0.8-0.6-1.4v-7.2c0-0.6,0.2-1.1,0.6-1.4c0.4-0.3,0.9-0.5,1.6-0.5c2.2,0,3.7,0,4.7,0.1l-0.1,1.1h-4.4
		c-0.3,0-0.6,0.1-0.7,0.3c-0.1,0.2-0.2,0.4-0.2,0.8v2.4H306.2z M319.1,27l-0.4-9.9h-0.3l-2.5,8.1c-0.1,0.3-0.3,0.5-0.6,0.5H314
		c-0.3,0-0.5-0.2-0.6-0.5l-2.5-8.1h-0.3l-0.4,9.9h-1.4l0.4-10.4c0-0.4,0.2-0.6,0.6-0.6h1.6c0.3,0,0.5,0.2,0.6,0.5l2.1,6.7
		c0.1,0.2,0.1,0.5,0.2,0.9c0.1,0.4,0.2,0.6,0.2,0.6h0.3c0-0.1,0.1-0.3,0.2-0.7s0.2-0.6,0.2-0.8l2.1-6.7c0.1-0.3,0.3-0.5,0.6-0.5h1.6
		c0.4,0,0.6,0.2,0.6,0.6l0.5,10.4H319.1z"/>
	<path class="st0" d="M119.5,22.5c0,0.2,0.1,0.3,0.3,0.3c0.1,0,0.1,0,0.2-0.1l6.4-6.4c0.1-0.1,0.1-0.1,0.1-0.2
		c0-0.2-0.1-0.3-0.3-0.3c-0.1,0-0.1,0-0.2,0.1l-6.4,6.4C119.5,22.4,119.5,22.4,119.5,22.5z"/>
</g>
</svg>
